G04 #@! TF.GenerationSoftware,KiCad,Pcbnew,(5.1.2-1)-1*
G04 #@! TF.CreationDate,2020-03-14T19:43:17-05:00*
G04 #@! TF.ProjectId,LeChiffre_Plate,4c654368-6966-4667-9265-5f506c617465,rev?*
G04 #@! TF.SameCoordinates,Original*
G04 #@! TF.FileFunction,Profile,NP*
%FSLAX46Y46*%
G04 Gerber Fmt 4.6, Leading zero omitted, Abs format (unit mm)*
G04 Created by KiCad (PCBNEW (5.1.2-1)-1) date 2020-03-14 19:43:17*
%MOMM*%
%LPD*%
G04 APERTURE LIST*
%ADD10C,0.200000*%
G04 APERTURE END LIST*
D10*
X153029387Y-137725856D02*
X135659830Y-135593142D01*
X199107415Y-75325961D02*
G75*
G02X200197754Y-76626408I-105054J-1195393D01*
G01*
X156446929Y-96433361D02*
G75*
G02X155889721Y-96868699I-496273J60935D01*
G01*
X142986621Y-95284398D02*
X155889721Y-96868699D01*
X142986622Y-95284397D02*
G75*
G02X142551283Y-94727190I60934J496273D01*
G01*
X144135584Y-81824090D02*
X142551283Y-94727190D01*
X134433858Y-57145295D02*
X140389135Y-57876511D01*
X133876650Y-57580633D02*
G75*
G02X134433858Y-57145295I496273J-60935D01*
G01*
X124659020Y-88235786D02*
X137562120Y-89820087D01*
X124659020Y-88235785D02*
G75*
G02X124223681Y-87678578I60934J496273D01*
G01*
X125807983Y-74775478D02*
X124223681Y-87678578D01*
X107975566Y-46387569D02*
X110405494Y-50115778D01*
X138561094Y-72764703D02*
X132605817Y-72033487D01*
X139118302Y-72329365D02*
G75*
G02X138561094Y-72764703I-496273J60935D01*
G01*
X170022197Y-57435789D02*
G75*
G02X171067009Y-58773087I-146243J-1191055D01*
G01*
X179336255Y-133375719D02*
G75*
G03X179336255Y-133375719I-1050000J0D01*
G01*
X147816797Y-71382386D02*
X149401099Y-58479286D01*
X148252135Y-71939594D02*
G75*
G02X147816797Y-71382386I60935J496273D01*
G01*
X105136410Y-51188504D02*
X103786736Y-49117716D01*
X154624135Y-134584290D02*
G75*
G02X155961433Y-133539478I1191055J-146243D01*
G01*
X170700281Y-69875636D02*
G75*
G02X169862554Y-68582589I353328J1146804D01*
G01*
X175378128Y-94463309D02*
X162475028Y-92879008D01*
X175935336Y-94027971D02*
G75*
G02X175378128Y-94463309I-496273J60935D01*
G01*
X177519637Y-81124871D02*
X175935336Y-94027971D01*
X177084299Y-80567663D02*
G75*
G02X177519637Y-81124871I-60935J-496273D01*
G01*
X164181199Y-78983361D02*
X177084299Y-80567663D01*
X163623991Y-79418699D02*
G75*
G02X164181199Y-78983361I496273J-60935D01*
G01*
X162039690Y-92321800D02*
X163623991Y-79418700D01*
X162475029Y-92879007D02*
G75*
G02X162039690Y-92321800I60934J496273D01*
G01*
X194866535Y-92057919D02*
X181963435Y-90473617D01*
X195423743Y-91622581D02*
G75*
G02X194866535Y-92057919I-496273J60935D01*
G01*
X197008044Y-78719481D02*
X195423743Y-91622581D01*
X196572706Y-78162273D02*
G75*
G02X197008044Y-78719481I-60935J-496273D01*
G01*
X183669606Y-76577971D02*
X196572706Y-78162273D01*
X183112398Y-77013309D02*
G75*
G02X183669606Y-76577971I496273J-60935D01*
G01*
X181528097Y-89916410D02*
X183112398Y-77013310D01*
X181963436Y-90473617D02*
G75*
G02X181528097Y-89916410I60934J496273D01*
G01*
X110735826Y-54235542D02*
X116691103Y-54966758D01*
X110178618Y-54670880D02*
G75*
G02X110735826Y-54235542I496273J-60935D01*
G01*
X108472447Y-68566527D02*
X110178618Y-54670881D01*
X108907785Y-69123735D02*
G75*
G02X108472447Y-68566527I60935J496273D01*
G01*
X114863062Y-69854951D02*
X108907786Y-69123735D01*
X115420270Y-69419613D02*
G75*
G02X114863062Y-69854951I-496273J60935D01*
G01*
X117126441Y-55523966D02*
X115420270Y-69419612D01*
X116691103Y-54966758D02*
G75*
G02X117126441Y-55523966I-60935J-496273D01*
G01*
X130429729Y-69751277D02*
X117526629Y-68166976D01*
X130986936Y-69315938D02*
G75*
G02X130429729Y-69751277I-496273J60934D01*
G01*
X132571238Y-56412839D02*
X130986936Y-69315939D01*
X132135900Y-55855631D02*
G75*
G02X132571238Y-56412839I-60935J-496273D01*
G01*
X119232799Y-54271330D02*
X132135899Y-55855631D01*
X118675592Y-54706669D02*
G75*
G02X119232799Y-54271330I496273J-60934D01*
G01*
X117091290Y-67609768D02*
X118675592Y-54706668D01*
X117526628Y-68166976D02*
G75*
G02X117091290Y-67609768I60935J496273D01*
G01*
X190223313Y-129873927D02*
X177320213Y-128289626D01*
X190780521Y-129438589D02*
G75*
G02X190223313Y-129873927I-496273J60935D01*
G01*
X192364822Y-116535489D02*
X190780521Y-129438589D01*
X191929484Y-115978281D02*
G75*
G02X192364822Y-116535489I-60935J-496273D01*
G01*
X179026384Y-114393980D02*
X191929484Y-115978281D01*
X178469176Y-114829318D02*
G75*
G02X179026384Y-114393980I496273J-60935D01*
G01*
X176884875Y-127732418D02*
X178469176Y-114829318D01*
X177320213Y-128289626D02*
G75*
G02X176884875Y-127732418I60935J496273D01*
G01*
X161155235Y-73523895D02*
X148252135Y-71939594D01*
X161712443Y-73088557D02*
G75*
G02X161155235Y-73523895I-496273J60935D01*
G01*
X153568110Y-115776703D02*
X140665010Y-114192402D01*
X154125318Y-115341365D02*
G75*
G02X153568110Y-115776703I-496273J60935D01*
G01*
X155709619Y-102438265D02*
X154125318Y-115341365D01*
X155274281Y-101881057D02*
G75*
G02X155709619Y-102438265I-60935J-496273D01*
G01*
X142371181Y-100296756D02*
X155274281Y-101881057D01*
X141813973Y-100732094D02*
G75*
G02X142371181Y-100296756I496273J-60935D01*
G01*
X140229672Y-113635194D02*
X141813973Y-100732094D01*
X115717065Y-111418838D02*
G75*
G02X116152403Y-111976046I-60935J-496273D01*
G01*
X102813964Y-109834537D02*
X115717064Y-111418838D01*
X102256757Y-110269876D02*
G75*
G02X102813964Y-109834537I496273J-60934D01*
G01*
X100672455Y-123172975D02*
X102256757Y-110269875D01*
X101107793Y-123730183D02*
G75*
G02X100672455Y-123172975I60935J496273D01*
G01*
X144135583Y-81824090D02*
G75*
G02X144692792Y-81388751I496274J-60935D01*
G01*
X157595892Y-82973053D02*
X144692792Y-81388751D01*
X157595892Y-82973053D02*
G75*
G02X158031230Y-83530261I-60935J-496273D01*
G01*
X156446929Y-96433361D02*
X158031230Y-83530261D01*
X181698972Y-73264313D02*
X196934555Y-75135007D01*
X154624135Y-134584290D02*
X154366686Y-136681044D01*
X134615017Y-134255844D02*
X134872466Y-132159090D01*
X97634420Y-122808742D02*
X106222863Y-52861494D01*
X173028049Y-73568171D02*
G75*
G03X173028049Y-73568171I-1050000J0D01*
G01*
X154366686Y-136681043D02*
G75*
G02X153029387Y-137725856I-1191056J146243D01*
G01*
X151803707Y-134249369D02*
G75*
G02X151246499Y-134684707I-496273J60935D01*
G01*
X138343399Y-133100406D02*
X151246499Y-134684707D01*
X138343399Y-133100406D02*
G75*
G02X137908061Y-132543198I60935J496273D01*
G01*
X140665010Y-114192402D02*
G75*
G02X140229672Y-113635194I60935J496273D01*
G01*
X139492362Y-119640098D02*
G75*
G02X140049570Y-119204760I496273J-60935D01*
G01*
X152952670Y-120789061D02*
X140049570Y-119204760D01*
X152952670Y-120789061D02*
G75*
G02X153388008Y-121346269I-60935J-496273D01*
G01*
X151803707Y-134249369D02*
X153388008Y-121346269D01*
X170700281Y-69875636D02*
X181698972Y-73264313D01*
X110405494Y-50115778D02*
X170022197Y-57435788D01*
X105315677Y-85356967D02*
X106899979Y-72453867D01*
X105751016Y-85914174D02*
G75*
G02X105315677Y-85356967I60934J496273D01*
G01*
X102994066Y-104264971D02*
X104578368Y-91361871D01*
X103429404Y-104822179D02*
G75*
G02X102994066Y-104264971I60935J496273D01*
G01*
X132918898Y-127636095D02*
X120015798Y-126051794D01*
X133476105Y-127200756D02*
G75*
G02X132918898Y-127636095I-496273J60934D01*
G01*
X122337408Y-107143790D02*
G75*
G02X121902070Y-106586582I60935J496273D01*
G01*
X161302380Y-98326704D02*
G75*
G02X161859588Y-97891366I496273J-60935D01*
G01*
X174762688Y-99475667D02*
X161859588Y-97891366D01*
X174762688Y-99475667D02*
G75*
G02X175198026Y-100032875I-60935J-496273D01*
G01*
X118654116Y-87498476D02*
X105751016Y-85914175D01*
X119211323Y-87063137D02*
G75*
G02X118654116Y-87498476I-496273J60934D01*
G01*
X132170479Y-71476279D02*
X133876650Y-57580633D01*
X132605817Y-72033487D02*
G75*
G02X132170479Y-71476279I60935J496273D01*
G01*
X118038676Y-92510834D02*
G75*
G02X118474014Y-93068042I-60935J-496273D01*
G01*
X105135575Y-90926533D02*
X118038675Y-92510834D01*
X104578368Y-91361872D02*
G75*
G02X105135575Y-90926533I496273J-60934D01*
G01*
X193102132Y-110530585D02*
G75*
G02X192544924Y-110965923I-496273J60935D01*
G01*
X194686433Y-97627485D02*
X193102132Y-110530585D01*
X194251095Y-97070277D02*
G75*
G02X194686433Y-97627485I-60935J-496273D01*
G01*
X181347995Y-95485976D02*
X194251095Y-97070277D01*
X180790787Y-95921314D02*
G75*
G02X181347995Y-95485976I496273J-60935D01*
G01*
X179206486Y-108824414D02*
X180790787Y-95921314D01*
X179641824Y-109381622D02*
G75*
G02X179206486Y-108824414I60935J496273D01*
G01*
X200197754Y-76626408D02*
X199869570Y-80360786D01*
X120795625Y-74160038D02*
X119211323Y-87063138D01*
X120360287Y-73602830D02*
G75*
G02X120795625Y-74160038I-60935J-496273D01*
G01*
X97187296Y-129512601D02*
G75*
G02X94102458Y-125577659I-1542419J1967471D01*
G01*
X173613725Y-112935975D02*
X175198026Y-100032875D01*
X173613725Y-112935975D02*
G75*
G02X173056517Y-113371313I-496273J60935D01*
G01*
X160153417Y-111787012D02*
X173056517Y-113371313D01*
X94102458Y-125577659D02*
X97634420Y-122808742D01*
X133827654Y-130821791D02*
X100709676Y-126755415D01*
X174892408Y-135828337D02*
G75*
G02X174601310Y-135828167I-144854J1191226D01*
G01*
X133827654Y-130821792D02*
G75*
G02X134872466Y-132159090I-146243J-1191055D01*
G01*
X96694877Y-127545130D02*
G75*
G03X96694877Y-127545130I-1050000J0D01*
G01*
X106931151Y-47752643D02*
G75*
G03X106931151Y-47752643I-1050000J0D01*
G01*
X114010894Y-125314484D02*
X101107794Y-123730183D01*
X114568101Y-124879145D02*
G75*
G02X114010894Y-125314484I-496273J60934D01*
G01*
X116152403Y-111976046D02*
X114568101Y-124879146D01*
X99132573Y-127987583D02*
X97187296Y-129512602D01*
X140824473Y-58433719D02*
X139118302Y-72329365D01*
X140389135Y-57876511D02*
G75*
G02X140824473Y-58433719I-60935J-496273D01*
G01*
X149958306Y-58043948D02*
X162861406Y-59628249D01*
X149401099Y-58479287D02*
G75*
G02X149958306Y-58043948I496273J-60934D01*
G01*
X106222863Y-52861494D02*
X105136410Y-51188504D01*
X136946680Y-94832445D02*
G75*
G02X137382018Y-95389653I-60935J-496273D01*
G01*
X124043580Y-93248144D02*
X136946680Y-94832445D01*
X123486372Y-93683482D02*
G75*
G02X124043580Y-93248144I496273J-60935D01*
G01*
X121902070Y-106586582D02*
X123486372Y-93683482D01*
X172876415Y-118940879D02*
X171292114Y-131843979D01*
X172441077Y-118383671D02*
G75*
G02X172876415Y-118940879I-60935J-496273D01*
G01*
X159537977Y-116799370D02*
X172441077Y-118383671D01*
X100709676Y-126755415D02*
X99132573Y-127987583D01*
X121164761Y-112591486D02*
G75*
G02X121721969Y-112156148I496273J-60935D01*
G01*
X119580459Y-125494586D02*
X121164761Y-112591486D01*
X120015797Y-126051794D02*
G75*
G02X119580459Y-125494586I60935J496273D01*
G01*
X135240509Y-108728091D02*
X122337409Y-107143790D01*
X135797716Y-108292752D02*
G75*
G02X135240509Y-108728091I-496273J60934D01*
G01*
X137382018Y-95389653D02*
X135797717Y-108292753D01*
X139268291Y-75924441D02*
X126365191Y-74340139D01*
X139268291Y-75924441D02*
G75*
G02X139703629Y-76481649I-60935J-496273D01*
G01*
X138119328Y-89384749D02*
X139703629Y-76481649D01*
X138119327Y-89384748D02*
G75*
G02X137562120Y-89820087I-496273J60934D01*
G01*
X171067009Y-58773087D02*
X169862554Y-68582589D01*
X139492362Y-119640098D02*
X137908061Y-132543198D01*
X170734906Y-132279317D02*
X157831806Y-130695016D01*
X171292114Y-131843979D02*
G75*
G02X170734906Y-132279317I-496273J60935D01*
G01*
X192402559Y-133699073D02*
X174892409Y-135828336D01*
X174601310Y-135828167D02*
X155961433Y-133539478D01*
X103786736Y-49117717D02*
G75*
G02X107975566Y-46387569I2094415J1365074D01*
G01*
X158980769Y-117234708D02*
G75*
G02X159537977Y-116799370I496273J-60935D01*
G01*
X157396468Y-130137808D02*
X158980769Y-117234708D01*
X157831806Y-130695016D02*
G75*
G02X157396468Y-130137808I60935J496273D01*
G01*
X192544924Y-110965923D02*
X179641824Y-109381622D01*
X107457186Y-72018528D02*
X120360286Y-73602830D01*
X106899979Y-72453867D02*
G75*
G02X107457186Y-72018528I496273J-60934D01*
G01*
X163296745Y-60185457D02*
X161712443Y-73088557D01*
X162861407Y-59628249D02*
G75*
G02X163296745Y-60185457I-60935J-496273D01*
G01*
X160153417Y-111787012D02*
G75*
G02X159718079Y-111229804I60935J496273D01*
G01*
X161302380Y-98326704D02*
X159718079Y-111229804D01*
X125807983Y-74775477D02*
G75*
G02X126365191Y-74340139I496273J-60935D01*
G01*
X199869570Y-80360786D02*
X193448760Y-132654091D01*
X193448759Y-132654091D02*
G75*
G02X192402559Y-133699073I-1191055J146243D01*
G01*
X135060407Y-114297657D02*
X133476106Y-127200757D01*
X134625069Y-113740449D02*
G75*
G02X135060407Y-114297657I-60935J-496273D01*
G01*
X121721969Y-112156148D02*
X134625069Y-113740449D01*
X116332505Y-106406480D02*
X103429405Y-104822179D01*
X116889712Y-105971141D02*
G75*
G02X116332505Y-106406480I-496273J60934D01*
G01*
X118474014Y-93068042D02*
X116889712Y-105971142D01*
X196934555Y-75135007D02*
X199107414Y-75325962D01*
X135659830Y-135593143D02*
G75*
G02X134615017Y-134255844I146243J1191056D01*
G01*
M02*
