0
SECTION
2
HEADER
9
$INSUNITS
70
4
9
$ACADVER
1
AC1014
9
$HANDSEED
5
FFFF
0
ENDSEC
0
SECTION
2
TABLES
0
TABLE
2
VPORT
5
8
100
AcDbSymbolTable
0
ENDTAB
0
TABLE
2
LTYPE
5
5
100
AcDbSymbolTable
0
LTYPE
5
14
100
AcDbSymbolTableRecord
100
AcDbLinetypeTableRecord
2
BYBLOCK
70
0
0
LTYPE
5
15
100
AcDbSymbolTableRecord
100
AcDbLinetypeTableRecord
2
BYLAYER
70
0
0
ENDTAB
0
TABLE
2
LAYER
5
2
100
AcDbSymbolTable
70
2
0
LAYER
5
50
100
AcDbSymbolTableRecord
100
AcDbLayerTableRecord
2
0
70
0
6
CONTINUOUS
0
ENDTAB
0
TABLE
2
STYLE
5
3
100
AcDbSymbolTable
70
1
0
STYLE
5
11
100
AcDbSymbolTableRecord
100
AcDbTextStyleTableRecord
2
STANDARD
70
0
0
ENDTAB
0
TABLE
2
VIEW
5
6
100
AcDbSymbolTable
70
0
0
ENDTAB
0
TABLE
2
UCS
5
7
100
AcDbSymbolTable
70
0
0
ENDTAB
0
TABLE
2
APPID
5
9
100
AcDbSymbolTable
70
2
0
APPID
5
12
100
AcDbSymbolTableRecord
100
AcDbRegAppTableRecord
2
ACAD
70
0
0
ENDTAB
0
TABLE
2
DIMSTYLE
5
A
100
AcDbSymbolTable
70
1
0
ENDTAB
0
TABLE
2
BLOCK_RECORD
5
1
100
AcDbSymbolTable
70
1
0
BLOCK_RECORD
5
1F
100
AcDbSymbolTableRecord
100
AcDbBlockTableRecord
2
*MODEL_SPACE
0
BLOCK_RECORD
5
1B
100
AcDbSymbolTableRecord
100
AcDbBlockTableRecord
2
*PAPER_SPACE
0
ENDTAB
0
ENDSEC
0
SECTION
2
BLOCKS
0
BLOCK
5
20
100
AcDbEntity
100
AcDbBlockBegin
2
*MODEL_SPACE
0
ENDBLK
5
21
100
AcDbEntity
100
AcDbBlockEnd
0
BLOCK
5
1C
100
AcDbEntity
100
AcDbBlockBegin
2
*PAPER_SPACE
0
ENDBLK
5
1D
100
AcDbEntity
100
AcDbBlockEnd
0
ENDSEC
0
SECTION
2
ENTITIES
0
ELLIPSE
5
100
100
AcDbEntity
8
0
100
AcDbEllipse
10
0.028657863197700806
20
-3.612332503548803
30
-2.2204460492503131e-15
11
-2.7066013574525282e-32
21
2.5095495938583685
31
0.0
40
0.99619469809174555
41
0
42
6.2831853071795862
0
CIRCLE
5
101
100
AcDbEntity
8
0
100
AcDbCircle
10
13.773098827155703
20
-43.387685738322581
30
-2.19824158875781e-13
40
1.25
210
0
220
0
230
1
0
CIRCLE
5
102
100
AcDbEntity
8
0
100
AcDbCircle
10
-13.779682590395304
20
-43.400397397763903
30
-2.1760371282653068e-13
40
1.25
210
0
220
0
230
1
0
CIRCLE
5
103
100
AcDbEntity
8
0
100
AcDbCircle
10
99.96291653732672
20
23.098614133549759
30
1.4210854715202004e-13
40
1.25
210
0
220
0
230
1
0
CIRCLE
5
104
100
AcDbEntity
8
0
100
AcDbCircle
10
-100.03034566557309
20
23.006345908391459
30
1.5099033134902129e-13
40
1.25
210
0
220
0
230
1
0
SPLINE
5
105
100
AcDbEntity
8
0
100
AcDbSpline
70
0
71
3
72
8
73
4
74
0
42
0.000000001
43
0.0000000001
44
0.0000000001
40
0.12500950630769964
40
0.12500950630769964
40
0.12500950630769964
40
0.12500950630769964
40
0.75798958500388303
40
0.75798958500388303
40
0.75798958500388303
40
0.75798958500388303
10
-27.409266467454572
20
43.581782694071592
30
-2.2204460492503131e-15
10
-27.260277484479616
20
43.600576881331932
30
-2.2204460492503131e-15
10
-27.124968822314575
20
43.664801459374345
30
0
10
-27.015777558213969
20
43.768560261010279
30
-2.2204460492503131e-15
0
LINE
5
106
100
AcDbEntity
8
0
100
AcDbLine
10
-24.134322485150186
20
46.506657743547876
30
-2.2204460492503131e-15
11
-27.015777558213987
21
43.768560261010265
31
-2.2204460492503131e-15
0
ARC
5
107
100
AcDbEntity
8
0
100
AcDbCircle
10
-22.412212451322837
20
44.694383810646443
30
-2.2204460492503131e-15
40
2.4999999552965839
210
6.7762628570224852e-21
220
3.1259451507573397e-24
230
1
100
AcDbArc
50
90.026431007061291
51
133.53867301564179
0
LINE
5
108
100
AcDbEntity
8
0
100
AcDbLine
10
22.323815473284334
20
47.215021125360252
30
-2.2204460492503131e-15
11
-22.413365721505905
21
47.194383499936599
31
-2.2207170997934345e-15
0
ARC
5
109
100
AcDbEntity
8
0
100
AcDbCircle
10
22.324968743467437
20
44.715021436070394
30
0
40
2.499999955296297
210
0
220
-0
230
1
100
AcDbArc
50
46.514004188615324
51
90.02643100706203
0
LINE
5
110
100
AcDbEntity
8
0
100
AcDbLine
10
26.929365895221977
20
43.793447068807893
30
-2.2204460492503131e-15
11
24.045411861979247
21
46.528877894681948
31
-2.2204460492503131e-15
0
SPLINE
5
111
100
AcDbEntity
8
0
100
AcDbSpline
70
0
71
3
72
8
73
4
74
0
42
0.000000001
43
0.0000000001
44
0.0000000001
40
-0.75707038293605122
40
-0.75707038293605122
40
-0.75707038293605122
40
-0.75707038293605122
40
-0.12409030424082974
40
-0.12409030424082974
40
-0.12409030424082974
40
-0.12409030424082974
10
26.929365895221977
20
43.793447068807893
30
-2.2204460492503131e-15
10
27.038650323653215
20
43.689790772322922
30
-2.2204460492503131e-15
10
27.174019660135471
20
43.625690223286064
30
0
10
27.323023584333868
20
43.607033794234617
30
-2.2204460492503131e-15
0
LINE
5
112
100
AcDbEntity
8
0
100
AcDbLine
10
85.186827279495532
20
36.362043743815534
30
0
11
27.323023584333832
21
43.607033794234617
31
0
0
ARC
5
113
100
AcDbEntity
8
0
100
AcDbCircle
10
84.006570186278609
20
26.935645049481877
30
0
40
9.4999999552959871
210
7.1898309101167096e-18
220
1.1870102186698053e-17
230
1
100
AcDbArc
50
58.796321997367777
51
82.863270329474375
0
LINE
5
114
100
AcDbEntity
8
0
100
AcDbLine
10
115.89597385334275
20
18.726748857670408
30
0
11
88.928348373882358
21
35.061289554544317
31
0
0
ARC
5
115
100
AcDbEntity
8
0
100
AcDbCircle
10
114.60076908419751
20
16.588421384511818
30
0
40
2.4999999552963033
210
8.6879271940532866e-19
220
1.3850566546153695e-17
230
1
100
AcDbArc
50
-3.5892412346841298
51
58.79632199739239
0
LINE
5
116
100
AcDbEntity
8
0
100
AcDbLine
10
113.45945425248661
20
-41.54089392613335
30
-2.2204460492503131e-15
11
117.09586529302662
21
16.431913604615367
31
-2.2204460492503131e-15
0
ARC
5
117
100
AcDbEntity
8
0
100
AcDbCircle
10
108.96828104090119
20
-41.259179920081067
30
-2.2204460492503131e-15
40
4.49999995529652
210
-6.4026092563807696e-21
220
1.3877786330871289e-17
230
1
100
AcDbArc
50
270.0264337880327
51
356.41075876531858
0
LINE
5
118
100
AcDbEntity
8
0
100
AcDbLine
10
72.807242922598306
20
-45.775863490336199
30
0
11
108.97035714566417
21
-45.759179396465228
31
0
0
ARC
5
119
100
AcDbEntity
8
0
100
AcDbCircle
10
72.809780384021224
20
-51.275862949702983
30
0
40
5.5000000447041222
210
6.4026092566447875e-21
220
-1.3877786330871289e-17
230
1
100
AcDbArc
50
90.02643378803387
51
115.45713873284851
0
ARC
5
120
100
AcDbEntity
8
0
100
AcDbCircle
10
70.53703937191824
20
-46.801457269007273
30
0
40
0.50000004470346726
210
-2.5356323901295826e-18
220
1.3644176883229446e-17
230
1
100
AcDbArc
50
100.52774105812686
51
121.85330994685249
0
ARC
5
121
100
AcDbEntity
8
0
100
AcDbCircle
10
67.898307689778719
20
-42.554447131313523
30
-2.2204460492503131e-15
40
4.4999999552965519
210
3.4193360479344374e-18
220
1.3561356899961179e-17
230
1
100
AcDbArc
50
262.97352792177594
51
301.8533099468587
0
LINE
5
122
100
AcDbEntity
8
0
100
AcDbLine
10
57.306451962760008
20
-45.783014883599861
30
-2.2204460492503131e-15
11
67.347832093756324
21
-47.020650912586021
31
-2.203098814490545e-15
0
LINE
5
123
100
AcDbEntity
8
0
100
AcDbLine
10
-57.689435139456045
20
-45.836069002870474
30
0
11
57.306451962760008
21
-45.783014883599861
31
0
0
LINE
5
124
100
AcDbEntity
8
0
100
AcDbLine
10
-67.344709098936775
20
-47.026116064738005
30
0
11
-57.689435139456045
21
-45.836069002870481
31
0
0
ARC
5
125
100
AcDbEntity
8
0
100
AcDbCircle
10
-67.895184694959227
20
-42.559912283465607
30
0
40
4.49999995529644
210
-5.9515147235935102e-18
220
3.5675931809177157e-18
230
1
100
AcDbArc
50
239.05971989749486
51
277.02647207822497
0
ARC
5
126
100
AcDbEntity
8
0
100
AcDbCircle
10
-70.465906506189668
20
-46.848430602100066
30
0
40
0.50000004470348336
210
-1.1836716382418033e-18
220
-1.5470622628104741e-17
230
1
100
AcDbArc
50
59.059719897495313
51
78.892413955127537
0
ARC
5
127
100
AcDbEntity
8
0
100
AcDbCircle
10
-72.692904725686276
20
-51.342991583643439
30
0
40
5.5000000447034925
210
1.2151697420224352e-17
220
9.6476677417766349e-18
230
1
100
AcDbArc
50
65.012370575909699
51
90.018870424621483
0
LINE
5
128
100
AcDbEntity
8
0
100
AcDbLine
10
-108.98351542557239
20
-45.756798891344218
30
0
11
-72.69471615639317
21
-45.842991837238252
31
-1.0842021724855044e-18
0
ARC
5
129
100
AcDbEntity
8
0
100
AcDbCircle
10
-108.97282708188524
20
-41.25681162947582
30
-2.2204460492503131e-15
40
4.4999999552965102
210
8.6566040913460931e-19
220
5.4299544962797243e-20
230
1
100
AcDbArc
50
183.58924123468179
51
269.86391165218845
0
LINE
5
130
100
AcDbEntity
8
0
100
AcDbLine
10
-117.09596374346376
20
16.363377009090676
30
0
11
-113.46400029347066
21
-41.538525635528131
31
0
0
ARC
5
131
100
AcDbEntity
8
0
100
AcDbCircle
10
-114.6008675346344
20
16.519884788987007
30
0
40
2.4999999552965484
210
-2.0333255612322991e-17
220
2.0126573045814559e-17
230
1
100
AcDbArc
50
121.25644031615447
51
183.58924123468097
0
LINE
5
132
100
AcDbEntity
8
0
100
AcDbLine
10
-89.006724587052446
20
34.979205974793615
30
-2.2204460492503131e-15
11
-115.89804088897408
21
18.657018632543341
31
-2.2204460492503131e-15
0
ARC
5
133
100
AcDbEntity
8
0
100
AcDbCircle
10
-84.077465775613248
20
26.85809726227901
30
0
40
9.4999999552963921
210
1.7368466768669224e-18
220
-1.3768673068229194e-17
230
1
100
AcDbArc
50
97.189591002309285
51
121.25644031616704
0
LINE
5
134
100
AcDbEntity
8
0
100
AcDbLine
10
-27.409266467454572
20
43.581782694071592
30
-2.2204460492503131e-15
11
-85.266419201122559
21
36.283403034645254
31
-2.2204460492503131e-15
0
ENDSEC
0
SECTION
2
OBJECTS
0
DICTIONARY
5
C
100
AcDbDictionary
3
ACAD_GROUP
350
D
3
ACAD_MLINESTYLE
350
17
0
DICTIONARY
5
D
100
AcDbDictionary
0
DICTIONARY
5
1A
330
C
100
AcDbDictionary
0
DICTIONARY
5
17
100
AcDbDictionary
0
ENDSEC
0
EOF
