G04 #@! TF.GenerationSoftware,KiCad,Pcbnew,(5.1.10-1-10_14)*
G04 #@! TF.CreationDate,2021-09-21T06:26:05-05:00*
G04 #@! TF.ProjectId,LeChiffre,4c654368-6966-4667-9265-2e6b69636164,rev?*
G04 #@! TF.SameCoordinates,Original*
G04 #@! TF.FileFunction,Profile,NP*
%FSLAX46Y46*%
G04 Gerber Fmt 4.6, Leading zero omitted, Abs format (unit mm)*
G04 Created by KiCad (PCBNEW (5.1.10-1-10_14)) date 2021-09-21 06:26:05*
%MOMM*%
%LPD*%
G01*
G04 APERTURE LIST*
G04 #@! TA.AperFunction,Profile*
%ADD10C,0.050000*%
G04 #@! TD*
G04 APERTURE END LIST*
D10*
X48500000Y-42300000D02*
X49380000Y-37200000D01*
X28970000Y-39750000D02*
X48500000Y-42300000D01*
X57560000Y-95850000D02*
X23860000Y-96640000D01*
X55890000Y-115110000D02*
X57560000Y-95850000D01*
X218700000Y-95980000D02*
X252260000Y-96740000D01*
X220270000Y-115200000D02*
X218700000Y-95980000D01*
X227440000Y-42210000D02*
X226460000Y-37310000D01*
X247150000Y-39750000D02*
X227440000Y-42210000D01*
X144790000Y-46610000D02*
X189170000Y-38450000D01*
X144790000Y-46610000D02*
X144790000Y-36750000D01*
X226460000Y-37310000D02*
X189170000Y-38450000D01*
X131320000Y-46600000D02*
X131320000Y-36770000D01*
X86940000Y-38350000D02*
X131320000Y-46600000D01*
X49380000Y-37200000D02*
X86940000Y-38350000D01*
X28970000Y-39750000D02*
X23860000Y-96640000D01*
X131320000Y-36770000D02*
X144790000Y-36750000D01*
X167930000Y-121730000D02*
X220270000Y-115200000D01*
X108190000Y-121630000D02*
X55890000Y-115110000D01*
X167930000Y-121730000D02*
X108190000Y-121630000D01*
X247150000Y-39750000D02*
X252260000Y-96740000D01*
M02*
