G04 #@! TF.GenerationSoftware,KiCad,Pcbnew,(5.1.10-1-10_14)*
G04 #@! TF.CreationDate,2021-09-21T06:26:05-05:00*
G04 #@! TF.ProjectId,LeChiffre,4c654368-6966-4667-9265-2e6b69636164,rev?*
G04 #@! TF.SameCoordinates,Original*
G04 #@! TF.FileFunction,Paste,Bot*
G04 #@! TF.FilePolarity,Positive*
%FSLAX46Y46*%
G04 Gerber Fmt 4.6, Leading zero omitted, Abs format (unit mm)*
G04 Created by KiCad (PCBNEW (5.1.10-1-10_14)) date 2021-09-21 06:26:05*
%MOMM*%
%LPD*%
G01*
G04 APERTURE LIST*
%ADD10R,1.500000X1.000000*%
%ADD11C,0.100000*%
%ADD12R,1.300000X0.700000*%
%ADD13R,1.400000X1.200000*%
%ADD14R,1.200000X1.400000*%
%ADD15R,0.500000X1.500000*%
%ADD16R,1.500000X0.500000*%
%ADD17R,1.700000X1.000000*%
%ADD18R,0.750000X0.800000*%
%ADD19R,0.800000X0.750000*%
%ADD20R,0.700000X1.300000*%
%ADD21R,0.600000X2.450000*%
%ADD22R,0.300000X2.450000*%
G04 APERTURE END LIST*
D10*
X135615000Y-119890000D03*
X135615000Y-116690000D03*
X140515000Y-119890000D03*
X140515000Y-116690000D03*
D11*
G36*
X201719778Y-115724329D02*
G01*
X201597909Y-114731783D01*
X203086728Y-114548979D01*
X203208597Y-115541525D01*
X201719778Y-115724329D01*
G37*
G36*
X201329796Y-112548181D02*
G01*
X201207927Y-111555635D01*
X202696746Y-111372831D01*
X202818615Y-112365377D01*
X201329796Y-112548181D01*
G37*
G36*
X206583254Y-115127169D02*
G01*
X206461385Y-114134623D01*
X207950204Y-113951819D01*
X208072073Y-114944365D01*
X206583254Y-115127169D01*
G37*
G36*
X206193272Y-111951021D02*
G01*
X206071403Y-110958475D01*
X207560222Y-110775671D01*
X207682091Y-111768217D01*
X206193272Y-111951021D01*
G37*
G36*
X241580222Y-90415671D02*
G01*
X241702091Y-91408217D01*
X240213272Y-91591021D01*
X240091403Y-90598475D01*
X241580222Y-90415671D01*
G37*
G36*
X241970204Y-93591819D02*
G01*
X242092073Y-94584365D01*
X240603254Y-94767169D01*
X240481385Y-93774623D01*
X241970204Y-93591819D01*
G37*
G36*
X236716746Y-91012831D02*
G01*
X236838615Y-92005377D01*
X235349796Y-92188181D01*
X235227927Y-91195635D01*
X236716746Y-91012831D01*
G37*
G36*
X237106728Y-94188979D02*
G01*
X237228597Y-95181525D01*
X235739778Y-95364329D01*
X235617909Y-94371783D01*
X237106728Y-94188979D01*
G37*
G36*
X236434329Y-59460222D02*
G01*
X235441783Y-59582091D01*
X235258979Y-58093272D01*
X236251525Y-57971403D01*
X236434329Y-59460222D01*
G37*
G36*
X233258181Y-59850204D02*
G01*
X232265635Y-59972073D01*
X232082831Y-58483254D01*
X233075377Y-58361385D01*
X233258181Y-59850204D01*
G37*
G36*
X235837169Y-54596746D02*
G01*
X234844623Y-54718615D01*
X234661819Y-53229796D01*
X235654365Y-53107927D01*
X235837169Y-54596746D01*
G37*
G36*
X232661021Y-54986728D02*
G01*
X231668475Y-55108597D01*
X231485671Y-53619778D01*
X232478217Y-53497909D01*
X232661021Y-54986728D01*
G37*
G36*
X175000222Y-43455671D02*
G01*
X175122091Y-44448217D01*
X173633272Y-44631021D01*
X173511403Y-43638475D01*
X175000222Y-43455671D01*
G37*
G36*
X175390204Y-46631819D02*
G01*
X175512073Y-47624365D01*
X174023254Y-47807169D01*
X173901385Y-46814623D01*
X175390204Y-46631819D01*
G37*
G36*
X170136746Y-44052831D02*
G01*
X170258615Y-45045377D01*
X168769796Y-45228181D01*
X168647927Y-44235635D01*
X170136746Y-44052831D01*
G37*
G36*
X170526728Y-47228979D02*
G01*
X170648597Y-48221525D01*
X169159778Y-48404329D01*
X169037909Y-47411783D01*
X170526728Y-47228979D01*
G37*
G36*
X108612073Y-44435635D02*
G01*
X108490204Y-45428181D01*
X107001385Y-45245377D01*
X107123254Y-44252831D01*
X108612073Y-44435635D01*
G37*
G36*
X108222091Y-47611783D02*
G01*
X108100222Y-48604329D01*
X106611403Y-48421525D01*
X106733272Y-47428979D01*
X108222091Y-47611783D01*
G37*
G36*
X103748597Y-43838475D02*
G01*
X103626728Y-44831021D01*
X102137909Y-44648217D01*
X102259778Y-43655671D01*
X103748597Y-43838475D01*
G37*
G36*
X103358615Y-47014623D02*
G01*
X103236746Y-48007169D01*
X101747927Y-47824365D01*
X101869796Y-46831819D01*
X103358615Y-47014623D01*
G37*
G36*
X38105635Y-53497927D02*
G01*
X39098181Y-53619796D01*
X38915377Y-55108615D01*
X37922831Y-54986746D01*
X38105635Y-53497927D01*
G37*
G36*
X41281783Y-53887909D02*
G01*
X42274329Y-54009778D01*
X42091525Y-55498597D01*
X41098979Y-55376728D01*
X41281783Y-53887909D01*
G37*
G36*
X37508475Y-58361403D02*
G01*
X38501021Y-58483272D01*
X38318217Y-59972091D01*
X37325671Y-59850222D01*
X37508475Y-58361403D01*
G37*
G36*
X40684623Y-58751385D02*
G01*
X41677169Y-58873254D01*
X41494365Y-60362073D01*
X40501819Y-60240204D01*
X40684623Y-58751385D01*
G37*
G36*
X34187927Y-94504365D02*
G01*
X34309796Y-93511819D01*
X35798615Y-93694623D01*
X35676746Y-94687169D01*
X34187927Y-94504365D01*
G37*
G36*
X34577909Y-91328217D02*
G01*
X34699778Y-90335671D01*
X36188597Y-90518475D01*
X36066728Y-91511021D01*
X34577909Y-91328217D01*
G37*
G36*
X39051403Y-95101525D02*
G01*
X39173272Y-94108979D01*
X40662091Y-94291783D01*
X40540222Y-95284329D01*
X39051403Y-95101525D01*
G37*
G36*
X39441385Y-91925377D02*
G01*
X39563254Y-90932831D01*
X41052073Y-91115635D01*
X40930204Y-92108181D01*
X39441385Y-91925377D01*
G37*
G36*
X67587927Y-114784365D02*
G01*
X67709796Y-113791819D01*
X69198615Y-113974623D01*
X69076746Y-114967169D01*
X67587927Y-114784365D01*
G37*
G36*
X67977909Y-111608217D02*
G01*
X68099778Y-110615671D01*
X69588597Y-110798475D01*
X69466728Y-111791021D01*
X67977909Y-111608217D01*
G37*
G36*
X72451403Y-115381525D02*
G01*
X72573272Y-114388979D01*
X74062091Y-114571783D01*
X73940222Y-115564329D01*
X72451403Y-115381525D01*
G37*
G36*
X72841385Y-112205377D02*
G01*
X72963254Y-111212831D01*
X74452073Y-111395635D01*
X74330204Y-112388181D01*
X72841385Y-112205377D01*
G37*
D12*
X144840000Y-73110000D03*
X144840000Y-71210000D03*
X131360000Y-71390000D03*
X131360000Y-73290000D03*
D13*
X148290000Y-62260000D03*
X148290000Y-65660000D03*
D14*
X247210000Y-93920000D03*
X243810000Y-93920000D03*
X248060000Y-74690000D03*
X244660000Y-74690000D03*
X245750000Y-55090000D03*
X242350000Y-55090000D03*
D13*
X233560000Y-88060000D03*
X233560000Y-91460000D03*
X229760000Y-70200000D03*
X229760000Y-73600000D03*
X228210000Y-51620000D03*
X228210000Y-55020000D03*
X213160000Y-87190000D03*
X213160000Y-90590000D03*
X211060000Y-68820000D03*
X211060000Y-72220000D03*
X208320000Y-50480000D03*
X208320000Y-53880000D03*
D14*
X214550000Y-113300000D03*
X211150000Y-113300000D03*
D13*
X194620000Y-92230000D03*
X194620000Y-95630000D03*
X193060000Y-73710000D03*
X193060000Y-77110000D03*
X191320000Y-53370000D03*
X191320000Y-56770000D03*
X191900000Y-107650000D03*
X191900000Y-111050000D03*
X175980000Y-95520000D03*
X175980000Y-98920000D03*
X174220000Y-75780000D03*
X174220000Y-79180000D03*
X172120000Y-56350000D03*
X172120000Y-59750000D03*
X87820000Y-108740000D03*
X87820000Y-112140000D03*
X120730000Y-97750000D03*
X120730000Y-101150000D03*
X120580000Y-78280000D03*
X120580000Y-81680000D03*
X123430000Y-58920000D03*
X123430000Y-62320000D03*
X77290000Y-109690000D03*
X77290000Y-113090000D03*
X98830000Y-94710000D03*
X98830000Y-98110000D03*
X101690000Y-76470000D03*
X101690000Y-79870000D03*
X103440000Y-56560000D03*
X103440000Y-59960000D03*
X80310000Y-90090000D03*
X80310000Y-93490000D03*
X82080000Y-71920000D03*
X82080000Y-75320000D03*
X84420000Y-51330000D03*
X84420000Y-54730000D03*
X61860000Y-91280000D03*
X61860000Y-94680000D03*
X64550000Y-71750000D03*
X64550000Y-75150000D03*
X66690000Y-51240000D03*
X66690000Y-54640000D03*
X43090000Y-89640000D03*
X43090000Y-93040000D03*
X45330000Y-71950000D03*
X45330000Y-75350000D03*
X46730000Y-52390000D03*
X46730000Y-55790000D03*
D11*
G36*
X139654569Y-95553984D02*
G01*
X140503097Y-96402512D01*
X139513147Y-97392462D01*
X138664619Y-96543934D01*
X139654569Y-95553984D01*
G37*
G36*
X138098934Y-97109619D02*
G01*
X138947462Y-97958147D01*
X137957512Y-98948097D01*
X137108984Y-98099569D01*
X138098934Y-97109619D01*
G37*
G36*
X136896853Y-95907538D02*
G01*
X137745381Y-96756066D01*
X136755431Y-97746016D01*
X135906903Y-96897488D01*
X136896853Y-95907538D01*
G37*
G36*
X138452488Y-94351903D02*
G01*
X139301016Y-95200431D01*
X138311066Y-96190381D01*
X137462538Y-95341853D01*
X138452488Y-94351903D01*
G37*
D15*
X134065000Y-113620000D03*
X134865000Y-113620000D03*
X135665000Y-113620000D03*
X136465000Y-113620000D03*
X137265000Y-113620000D03*
X138065000Y-113620000D03*
X138865000Y-113620000D03*
X139665000Y-113620000D03*
X140465000Y-113620000D03*
X141265000Y-113620000D03*
X142065000Y-113620000D03*
D16*
X143965000Y-111720000D03*
X143965000Y-110920000D03*
X143965000Y-110120000D03*
X143965000Y-109320000D03*
X143965000Y-108520000D03*
X143965000Y-107720000D03*
X143965000Y-106920000D03*
X143965000Y-106120000D03*
X143965000Y-105320000D03*
X143965000Y-104520000D03*
X143965000Y-103720000D03*
D15*
X142065000Y-101820000D03*
X141265000Y-101820000D03*
X140465000Y-101820000D03*
X139665000Y-101820000D03*
X138865000Y-101820000D03*
X138065000Y-101820000D03*
X137265000Y-101820000D03*
X136465000Y-101820000D03*
X135665000Y-101820000D03*
X134865000Y-101820000D03*
X134065000Y-101820000D03*
D16*
X132165000Y-103720000D03*
X132165000Y-104520000D03*
X132165000Y-105320000D03*
X132165000Y-106120000D03*
X132165000Y-106920000D03*
X132165000Y-107720000D03*
X132165000Y-108520000D03*
X132165000Y-109320000D03*
X132165000Y-110120000D03*
X132165000Y-110920000D03*
X132165000Y-111720000D03*
D17*
X134915000Y-79350000D03*
X141215000Y-79350000D03*
X134915000Y-75550000D03*
X141215000Y-75550000D03*
D12*
X134870000Y-46570000D03*
X134870000Y-48470000D03*
D18*
X130910000Y-97320000D03*
X130910000Y-98820000D03*
X128250000Y-112750000D03*
X128250000Y-114250000D03*
X134100000Y-96200000D03*
X134100000Y-97700000D03*
D19*
X128710000Y-106380000D03*
X127210000Y-106380000D03*
X128680000Y-107780000D03*
X127180000Y-107780000D03*
D18*
X142120000Y-95930000D03*
X142120000Y-97430000D03*
X147180000Y-113870000D03*
X147180000Y-112370000D03*
X147190000Y-103500000D03*
X147190000Y-102000000D03*
D20*
X151250000Y-110250000D03*
X149350000Y-110250000D03*
D12*
X131210000Y-76140000D03*
X131210000Y-78040000D03*
X136900000Y-47710000D03*
X136900000Y-49610000D03*
X138850000Y-49470000D03*
X138850000Y-47570000D03*
D20*
X146170000Y-49570000D03*
X144270000Y-49570000D03*
X124400000Y-48240000D03*
X126300000Y-48240000D03*
D21*
X141290000Y-43395000D03*
X134840000Y-43395000D03*
X140515000Y-43395000D03*
X135615000Y-43395000D03*
D22*
X136315000Y-43395000D03*
X139815000Y-43395000D03*
X136815000Y-43395000D03*
X139315000Y-43395000D03*
X137315000Y-43395000D03*
X138815000Y-43395000D03*
X138315000Y-43395000D03*
X137815000Y-43395000D03*
M02*
