M48
; DRILL file {KiCad (5.1.10-1-10_14)} date Tuesday, September 21, 2021 at 06:26:08 AM
; FORMAT={-:-/ absolute / inch / decimal}
; #@! TF.CreationDate,2021-09-21T06:26:08-05:00
; #@! TF.GenerationSoftware,Kicad,Pcbnew,(5.1.10-1-10_14)
; #@! TF.FileFunction,Plated,1,2,PTH
FMAT,2
INCH
T1C0.0157
T2C0.0236
T3C0.0394
T4C0.0472
T5C0.0579
T6C0.0866
%
G90
G05
T1
X1.1299Y-3.7185
X1.1571Y-2.0157
X2.2331Y-2.8693
X2.4264Y-4.4602
X2.4945Y-3.4138
X2.7665Y-3.5626
X2.9618Y-4.4602
X3.1567Y-4.5917
X3.2228Y-4.1799
X3.4697Y-1.7134
X3.8874Y-4.6744
X4.1571Y-3.9634
X4.1622Y-4.3776
X4.2315Y-4.4299
X4.3524Y-4.3181
X4.5307Y-1.8169
X4.6083Y-3.4098
X4.8079Y-1.8354
X4.8894Y-3.837
X4.8965Y-4.5
X4.898Y-4.6799
X4.9291Y-4.3268
X4.9661Y-4.2925
X4.9787Y-1.9835
X5.0299Y-2.0185
X5.0303Y-3.8311
X5.0524Y-2.4551
X5.0992Y-2.1709
X5.1116Y-3.0163
X5.1244Y-4.0311
X5.1551Y-3.7661
X5.1717Y-4.5002
X5.2185Y-1.9087
X5.2232Y-2.7575
X5.226Y-3.9244
X5.2429Y-4.6744
X5.2529Y-3.0607
X5.2799Y-4.4024
X5.3173Y-3.6315
X5.3524Y-3.7256
X5.3811Y-1.8008
X5.3874Y-4.4028
X5.4051Y-3.4787
X5.4374Y-4.3988
X5.4635Y-3.9325
X5.4669Y-4.3579
X5.5083Y-4.402
X5.5311Y-1.8051
X5.5343Y-3.8846
X5.5354Y-3.9291
X5.5531Y-4.1984
X5.5779Y-3.9232
X5.6165Y-4.6728
X5.6209Y-3.0614
X5.624Y-3.9264
X5.7035Y-3.3433
X5.7398Y-4.301
X5.7598Y-2.9634
X5.852Y-3.6059
X5.863Y-4.4232
X5.9701Y-4.5772
X6.1571Y-2.4276
X6.1602Y-2.5819
X6.3587Y-4.4551
X6.4492Y-4.4949
X6.5378Y-1.8701
X6.5512Y-1.7453
X6.7508Y-3.7642
X7.1256Y-4.6453
X7.2327Y-2.4
X7.6339Y-4.1142
X7.7882Y-4.5756
X7.8563Y-4.2626
X7.9035Y-4.4713
X8.1059Y-1.9551
X8.2276Y-4.4201
X8.2819Y-3.4437
X8.3531Y-3.7571
X8.3752Y-4.3008
X9.0535Y-2.1374
X9.122Y-3.6008
X9.1484Y-2.8209
X9.161Y-2.928
X9.1846Y-3.7244
X9.1988Y-2.7933
X9.2157Y-2.9323
X9.3346Y-2.2854
X9.3437Y-2.1878
X9.5661Y-3.624
X9.5783Y-3.0319
X9.7264Y-3.5866
T3
X4.6642Y-4.1984
X4.6642Y-4.2984
X4.6642Y-4.3984
X5.286Y-2.8346
X5.3372Y-2.0843
X5.3372Y-2.6551
X5.386Y-2.8346
X5.4356Y-2.6551
X5.486Y-2.8346
X5.5341Y-2.0843
X5.5341Y-2.6551
X5.586Y-2.8346
T4
X1.3221Y-3.2437
X1.4135Y-2.4993
X1.5049Y-1.7548
X1.5074Y-3.3497
X1.5988Y-2.6053
X1.6902Y-1.8609
X2.0894Y-3.149
X2.1808Y-2.4046
X2.2722Y-1.6601
X2.2747Y-3.255
X2.3661Y-2.5106
X2.4575Y-1.7662
X2.6493Y-3.9733
X2.8346Y-4.0794
X2.8566Y-3.0543
X2.948Y-2.3099
X3.0394Y-1.5654
X3.0419Y-3.1603
X3.1333Y-2.4159
X3.2247Y-1.6715
X3.5782Y-3.3318
X3.6696Y-2.5874
X3.761Y-1.8429
X3.7635Y-3.4378
X3.8549Y-2.6934
X3.859Y-4.1219
X3.9463Y-1.949
X4.0443Y-4.2279
X4.3226Y-3.4232
X4.414Y-2.6788
X4.5054Y-1.9343
X4.5079Y-3.5292
X4.5993Y-2.7848
X4.6907Y-2.0404
X5.4356Y-2.1374
X5.6325Y-2.2201
X6.3659Y-1.9343
X6.4573Y-2.6788
X6.5487Y-3.4232
X6.5713Y-1.9924
X6.6627Y-2.7368
X6.7541Y-3.4812
X7.0123Y-4.1219
X7.1103Y-1.8429
X7.2017Y-2.5874
X7.2177Y-4.1799
X7.2931Y-3.3318
X7.3157Y-1.901
X7.4071Y-2.6454
X7.4985Y-3.3898
X7.8318Y-1.5654
X7.9232Y-2.3099
X8.0146Y-3.0543
X8.0373Y-1.6235
X8.1287Y-2.3679
X8.2201Y-3.1123
X8.2219Y-3.9733
X8.4274Y-4.0314
X8.5991Y-1.6601
X8.6905Y-2.4046
X8.7819Y-3.149
X8.8045Y-1.7182
X8.8959Y-2.4626
X8.9873Y-3.207
X9.3663Y-1.7548
X9.4577Y-2.4993
X9.5491Y-3.2437
X9.5718Y-1.8129
X9.6632Y-2.5573
X9.7546Y-3.3017
T5
X1.1571Y-3.3567
X1.2153Y-3.3059
X1.2485Y-2.6123
X1.3067Y-2.5615
X1.3399Y-1.8679
X1.3981Y-1.8171
X1.4131Y-3.3104
X1.4174Y-3.2879
X1.5045Y-2.566
X1.5088Y-2.5435
X1.5959Y-1.8215
X1.6002Y-1.7991
X1.9244Y-3.262
X1.9826Y-3.2112
X2.0158Y-2.5176
X2.074Y-2.4668
X2.1072Y-1.7732
X2.1654Y-1.7224
X2.1803Y-3.2157
X2.1847Y-3.1932
X2.2717Y-2.4713
X2.2761Y-2.4488
X2.3631Y-1.7268
X2.3675Y-1.7044
X2.4843Y-4.0864
X2.5425Y-4.0356
X2.6916Y-3.1673
X2.7403Y-4.0401
X2.7447Y-4.0176
X2.7498Y-3.1165
X2.783Y-2.4229
X2.8412Y-2.3721
X2.8744Y-1.6785
X2.9326Y-1.6277
X2.9476Y-3.121
X2.952Y-3.0985
X3.039Y-2.3766
X3.0434Y-2.3541
X3.1304Y-1.6321
X3.1348Y-1.6097
X3.4132Y-3.4448
X3.4714Y-3.394
X3.5046Y-2.7004
X3.5628Y-2.6496
X3.596Y-1.956
X3.6542Y-1.9052
X3.6692Y-3.3985
X3.6735Y-3.376
X3.694Y-4.2349
X3.7522Y-4.1841
X3.7606Y-2.6541
X3.7649Y-2.6316
X3.852Y-1.9096
X3.8563Y-1.8872
X3.95Y-4.1886
X3.9543Y-4.1661
X4.1576Y-3.5362
X4.2158Y-3.4854
X4.249Y-2.7918
X4.3072Y-2.741
X4.3404Y-2.0474
X4.3986Y-1.9966
X4.4136Y-3.4899
X4.4179Y-3.4674
X4.505Y-2.7455
X4.5093Y-2.723
X4.5964Y-2.0011
X4.6007Y-1.9786
X5.2856Y-2.2697
X5.3372Y-2.2122
X5.5341Y-2.1925
X5.5356Y-2.1697
X6.2331Y-2.0839
X6.2773Y-2.0206
X6.3245Y-2.8283
X6.3687Y-2.765
X6.4159Y-3.5727
X6.4601Y-3.5094
X6.469Y-1.9542
X6.4703Y-1.9771
X6.5604Y-2.6986
X6.5617Y-2.7215
X6.6518Y-3.443
X6.6531Y-3.4659
X6.8795Y-4.2715
X6.9237Y-4.2081
X6.9775Y-1.9925
X7.0217Y-1.9292
X7.0689Y-2.7369
X7.1131Y-2.6736
X7.1155Y-4.1417
X7.1167Y-4.1646
X7.1603Y-3.4813
X7.2045Y-3.418
X7.2135Y-1.8628
X7.2147Y-1.8857
X7.3049Y-2.6072
X7.3061Y-2.6301
X7.3963Y-3.3516
X7.3975Y-3.3745
X7.6991Y-1.715
X7.7432Y-1.6517
X7.7905Y-2.4594
X7.8347Y-2.3961
X7.8819Y-3.2038
X7.9261Y-3.1405
X7.935Y-1.5853
X7.9362Y-1.6082
X8.0264Y-2.3297
X8.0276Y-2.3526
X8.0892Y-4.1229
X8.1178Y-3.0741
X8.119Y-3.097
X8.1333Y-4.0596
X8.3251Y-3.9932
X8.3263Y-4.0161
X8.4663Y-1.8097
X8.5105Y-1.7464
X8.5577Y-2.5541
X8.6019Y-2.4908
X8.6491Y-3.2985
X8.6933Y-3.2352
X8.7023Y-1.68
X8.7035Y-1.7029
X8.7937Y-2.4244
X8.7949Y-2.4473
X8.8851Y-3.1688
X8.8863Y-3.1917
X9.2336Y-1.9044
X9.2778Y-1.8411
X9.325Y-2.6488
X9.3692Y-2.5855
X9.4164Y-3.3932
X9.4606Y-3.3299
X9.4695Y-1.7747
X9.4708Y-1.7976
X9.5609Y-2.5191
X9.5622Y-2.542
X9.6523Y-3.2635
X9.6536Y-3.2864
T6
X5.2152Y-2.3598
X5.6561Y-2.3598
T2
G00X5.2656Y-1.4764
M15
G01X5.2656Y-1.5
M16
G05
G00X5.2656Y-1.6311
M15
G01X5.2656Y-1.6744
M16
G05
G00X5.6057Y-1.4764
M15
G01X5.6057Y-1.5
M16
G05
G00X5.6057Y-1.6311
M15
G01X5.6057Y-1.6744
M16
G05
T0
M30
