M48
; DRILL file {KiCad (5.1.10-1-10_14)} date Tuesday, September 21, 2021 at 06:26:08 AM
; FORMAT={-:-/ absolute / inch / decimal}
; #@! TF.CreationDate,2021-09-21T06:26:08-05:00
; #@! TF.GenerationSoftware,Kicad,Pcbnew,(5.1.10-1-10_14)
; #@! TF.FileFunction,NonPlated,1,2,NPTH
FMAT,2
INCH
T1C0.0256
T2C0.0472
T3C0.0669
T4C0.0689
T5C0.1200
T6C0.1570
%
G90
G05
T1
X5.3219Y-1.6319
X5.5494Y-1.6319
T2
X1.0697Y-3.6133
X1.1611Y-2.8689
X1.2525Y-2.1245
X1.8369Y-3.5186
X1.9283Y-2.7742
X2.0197Y-2.0298
X2.3969Y-4.343
X2.6042Y-3.4239
X2.6956Y-2.6795
X2.787Y-1.9351
X3.3258Y-3.7014
X3.4172Y-2.957
X3.5086Y-2.2126
X3.6066Y-4.4915
X4.0702Y-3.7928
X4.1616Y-3.0484
X4.253Y-2.304
X5.2301Y-2.535
X6.2103Y-2.3541
X6.3017Y-3.0985
X6.3931Y-3.8429
X6.8567Y-4.5416
X6.9547Y-2.2627
X7.0461Y-3.0071
X7.1375Y-3.7515
X7.6763Y-1.9852
X7.7677Y-2.7296
X7.8591Y-3.474
X8.0664Y-4.3931
X8.4436Y-2.0799
X8.535Y-2.8243
X8.6264Y-3.5687
X9.2108Y-2.1746
X9.3022Y-2.919
X9.3936Y-3.6634
T3
X1.0789Y-3.4478
X1.1703Y-2.7034
X1.2617Y-1.959
X1.5087Y-3.5006
X1.6001Y-2.7562
X1.6915Y-2.0118
X1.8461Y-3.3531
X1.9375Y-2.6087
X2.0289Y-1.8643
X2.276Y-3.4059
X2.3674Y-2.6615
X2.4061Y-4.1775
X2.4588Y-1.9171
X2.6134Y-3.2584
X2.7048Y-2.514
X2.7962Y-1.7696
X2.836Y-4.2303
X3.0432Y-3.3112
X3.1346Y-2.5668
X3.226Y-1.8224
X3.335Y-3.5359
X3.4264Y-2.7915
X3.5178Y-2.0471
X3.6158Y-4.326
X3.7648Y-3.5887
X3.8562Y-2.8443
X3.9476Y-2.0999
X4.0456Y-4.3788
X4.0794Y-3.6273
X4.1708Y-2.8829
X4.2622Y-2.1385
X4.5092Y-3.6801
X4.6006Y-2.9357
X4.692Y-2.1913
X5.2191Y-2.3697
X5.6522Y-2.3697
X6.1792Y-2.1913
X6.2706Y-2.9357
X6.362Y-3.6801
X6.6091Y-2.1385
X6.7005Y-2.8829
X6.7919Y-3.6273
X6.8257Y-4.3788
X6.9237Y-2.0999
X7.0151Y-2.8443
X7.1065Y-3.5887
X7.2555Y-4.326
X7.3535Y-2.0471
X7.4449Y-2.7915
X7.5363Y-3.5359
X7.6452Y-1.8224
X7.7366Y-2.5668
X7.828Y-3.3112
X8.0353Y-4.2303
X8.0751Y-1.7696
X8.1665Y-2.514
X8.2579Y-3.2584
X8.4125Y-1.9171
X8.4652Y-4.1775
X8.5039Y-2.6615
X8.5953Y-3.4059
X8.8423Y-1.8643
X8.9337Y-2.6087
X9.0251Y-3.3531
X9.1797Y-2.0118
X9.2711Y-2.7562
X9.3625Y-3.5006
X9.6096Y-1.959
X9.701Y-2.7034
X9.7924Y-3.4478
T4
X1.0953Y-3.4498
X1.1867Y-2.7054
X1.2781Y-1.961
X1.4923Y-3.4986
X1.5837Y-2.7542
X1.6751Y-2.0098
X1.8626Y-3.3551
X1.954Y-2.6107
X2.0454Y-1.8663
X2.2596Y-3.4039
X2.351Y-2.6595
X2.4225Y-4.1795
X2.4424Y-1.9151
X2.6298Y-3.2604
X2.7212Y-2.516
X2.8126Y-1.7716
X2.8195Y-4.2283
X3.0268Y-3.3092
X3.1182Y-2.5648
X3.2096Y-1.8204
X3.3514Y-3.5379
X3.4428Y-2.7935
X3.5342Y-2.0491
X3.6322Y-4.3281
X3.7484Y-3.5867
X3.8398Y-2.8423
X3.9312Y-2.0979
X4.0292Y-4.3768
X4.0958Y-3.6293
X4.1872Y-2.8849
X4.2786Y-2.1405
X4.4928Y-3.6781
X4.5842Y-2.9337
X4.6756Y-2.1893
X5.2356Y-2.3697
X5.6356Y-2.3697
X6.1957Y-2.1893
X6.2871Y-2.9337
X6.3785Y-3.6781
X6.5927Y-2.1405
X6.6841Y-2.8849
X6.7755Y-3.6293
X6.8421Y-4.3768
X6.9401Y-2.0979
X7.0315Y-2.8423
X7.1229Y-3.5867
X7.2391Y-4.3281
X7.3371Y-2.0491
X7.4285Y-2.7935
X7.5199Y-3.5379
X7.6616Y-1.8204
X7.753Y-2.5648
X7.8444Y-3.3092
X8.0517Y-4.2283
X8.0586Y-1.7716
X8.15Y-2.516
X8.2414Y-3.2604
X8.4289Y-1.9151
X8.4487Y-4.1795
X8.5203Y-2.6595
X8.6117Y-3.4039
X8.8259Y-1.8663
X8.9173Y-2.6107
X9.0087Y-3.3551
X9.1961Y-2.0098
X9.2875Y-2.7542
X9.3789Y-3.4986
X9.5932Y-1.961
X9.6846Y-2.7054
X9.776Y-3.4498
T5
X3.3307Y-4.5681
X4.2637Y-4.6827
X6.6076Y-4.6827
X7.5406Y-4.5681
T6
X1.2938Y-3.4742
X1.3852Y-2.7298
X1.4766Y-1.9854
X2.0611Y-3.3795
X2.1525Y-2.6351
X2.2439Y-1.8907
X2.621Y-4.2039
X2.8283Y-3.2848
X2.9197Y-2.5404
X3.0111Y-1.796
X3.4038Y-3.9726
X3.5499Y-3.5623
X3.6413Y-2.8179
X3.7327Y-2.0735
X3.8307Y-4.3524
X4.2943Y-3.6537
X4.3368Y-4.0871
X4.3857Y-2.9093
X4.4771Y-2.1649
X5.4356Y-2.3697
X6.3942Y-2.1649
X6.4856Y-2.9093
X6.5345Y-4.0871
X6.577Y-3.6537
X7.0406Y-4.3524
X7.1386Y-2.0735
X7.23Y-2.8179
X7.3214Y-3.5623
X7.4675Y-3.9726
X7.8601Y-1.796
X7.9515Y-2.5404
X8.0429Y-3.2848
X8.2502Y-4.2039
X8.6274Y-1.8907
X8.7188Y-2.6351
X8.8102Y-3.3795
X9.3947Y-1.9854
X9.4861Y-2.7298
X9.5775Y-3.4742
T0
M30
