G04 #@! TF.GenerationSoftware,KiCad,Pcbnew,(5.1.10-1-10_14)*
G04 #@! TF.CreationDate,2021-09-21T06:26:05-05:00*
G04 #@! TF.ProjectId,LeChiffre,4c654368-6966-4667-9265-2e6b69636164,rev?*
G04 #@! TF.SameCoordinates,Original*
G04 #@! TF.FileFunction,Other,Fab,Top*
%FSLAX46Y46*%
G04 Gerber Fmt 4.6, Leading zero omitted, Abs format (unit mm)*
G04 Created by KiCad (PCBNEW (5.1.10-1-10_14)) date 2021-09-21 06:26:05*
%MOMM*%
%LPD*%
G01*
G04 APERTURE LIST*
%ADD10C,0.120000*%
%ADD11C,0.100000*%
G04 APERTURE END LIST*
D10*
X141065000Y-59940000D02*
G75*
G03*
X141065000Y-59940000I-3000000J0D01*
G01*
X131865000Y-65540000D02*
X131865000Y-53340000D01*
X131865000Y-53340000D02*
X144265000Y-53340000D01*
X144265000Y-53340000D02*
X144265000Y-66540000D01*
X144265000Y-66540000D02*
X132965000Y-66540000D01*
X132965000Y-66540000D02*
X131865000Y-65540000D01*
X135065000Y-59940000D02*
X141065000Y-59940000D01*
X138065000Y-62940000D02*
X138065000Y-56940000D01*
D11*
X140065000Y-88670000D02*
G75*
G03*
X140065000Y-88670000I-2000000J0D01*
G01*
X140565000Y-86170000D02*
X135565000Y-86170000D01*
X140565000Y-91170000D02*
X140565000Y-86170000D01*
X135565000Y-91170000D02*
X140565000Y-91170000D01*
X135565000Y-86170000D02*
X135565000Y-91170000D01*
X140565000Y-90170000D02*
X139565000Y-91170000D01*
X140065000Y-78640000D02*
G75*
G03*
X140065000Y-78640000I-2000000J0D01*
G01*
X140565000Y-76140000D02*
X135565000Y-76140000D01*
X140565000Y-81140000D02*
X140565000Y-76140000D01*
X135565000Y-81140000D02*
X140565000Y-81140000D01*
X135565000Y-76140000D02*
X135565000Y-81140000D01*
X140565000Y-80140000D02*
X139565000Y-81140000D01*
X117200000Y-105370000D02*
X119105000Y-105370000D01*
X119105000Y-105370000D02*
X119740000Y-106005000D01*
X119740000Y-106005000D02*
X119740000Y-112990000D01*
X119740000Y-112990000D02*
X117200000Y-112990000D01*
X117200000Y-112990000D02*
X117200000Y-105370000D01*
X132995000Y-73270000D02*
X132995000Y-71365000D01*
X132995000Y-71365000D02*
X133630000Y-70730000D01*
X133630000Y-70730000D02*
X143155000Y-70730000D01*
X143155000Y-70730000D02*
X143155000Y-73270000D01*
X143155000Y-73270000D02*
X132995000Y-73270000D01*
M02*
