G04 #@! TF.GenerationSoftware,KiCad,Pcbnew,(5.1.10-1-10_14)*
G04 #@! TF.CreationDate,2021-09-21T06:26:05-05:00*
G04 #@! TF.ProjectId,LeChiffre,4c654368-6966-4667-9265-2e6b69636164,rev?*
G04 #@! TF.SameCoordinates,Original*
G04 #@! TF.FileFunction,Soldermask,Top*
G04 #@! TF.FilePolarity,Negative*
%FSLAX46Y46*%
G04 Gerber Fmt 4.6, Leading zero omitted, Abs format (unit mm)*
G04 Created by KiCad (PCBNEW (5.1.10-1-10_14)) date 2021-09-21 06:26:05*
%MOMM*%
%LPD*%
G01*
G04 APERTURE LIST*
%ADD10C,2.102000*%
%ADD11C,2.902000*%
%ADD12C,1.302000*%
%ADD13C,1.802000*%
%ADD14C,1.852000*%
%ADD15C,2.352000*%
%ADD16C,4.089800*%
%ADD17O,1.802000X1.802000*%
%ADD18C,3.150000*%
%ADD19C,0.752000*%
%ADD20O,1.102000X2.202000*%
%ADD21O,1.102000X1.702000*%
%ADD22C,0.100000*%
G04 APERTURE END LIST*
G36*
G01*
X136565000Y-68491000D02*
X134565000Y-68491000D01*
G75*
G02*
X134514000Y-68440000I0J51000D01*
G01*
X134514000Y-66440000D01*
G75*
G02*
X134565000Y-66389000I51000J0D01*
G01*
X136565000Y-66389000D01*
G75*
G02*
X136616000Y-66440000I0J-51000D01*
G01*
X136616000Y-68440000D01*
G75*
G02*
X136565000Y-68491000I-51000J0D01*
G01*
G37*
D10*
X138065000Y-67440000D03*
X140565000Y-67440000D03*
D11*
X132465000Y-59940000D03*
X143665000Y-59940000D03*
D10*
X135565000Y-52940000D03*
X140565000Y-52940000D03*
D12*
X132845000Y-64390000D03*
D13*
X143565000Y-60190000D03*
X132565000Y-60190000D03*
D10*
X138065000Y-54290000D03*
X143065000Y-56390000D03*
D14*
X143145000Y-60190000D03*
X132985000Y-60190000D03*
D15*
X135565000Y-56190000D03*
D16*
X138065000Y-60190000D03*
G36*
G01*
X133469629Y-58525310D02*
X133469629Y-58525310D01*
G75*
G02*
X133379690Y-56864629I785371J875310D01*
G01*
X134689680Y-55404621D01*
G75*
G02*
X136350361Y-55314682I875310J-785371D01*
G01*
X136350361Y-55314682D01*
G75*
G02*
X136440300Y-56975363I-785371J-875310D01*
G01*
X135130310Y-58435371D01*
G75*
G02*
X133469629Y-58525310I-875310J785371D01*
G01*
G37*
D15*
X140605000Y-55110000D03*
G36*
G01*
X140485014Y-56863277D02*
X140485014Y-56863277D01*
G75*
G02*
X139391723Y-55610014I79986J1173277D01*
G01*
X139431265Y-55029982D01*
G75*
G02*
X140684528Y-53936691I1173277J-79986D01*
G01*
X140684528Y-53936691D01*
G75*
G02*
X141777819Y-55189954I-79986J-1173277D01*
G01*
X141738277Y-55769986D01*
G75*
G02*
X140485014Y-56863277I-1173277J79986D01*
G01*
G37*
G36*
G01*
X134814000Y-87570000D02*
X134814000Y-86570000D01*
G75*
G02*
X134865000Y-86519000I51000J0D01*
G01*
X136365000Y-86519000D01*
G75*
G02*
X136416000Y-86570000I0J-51000D01*
G01*
X136416000Y-87570000D01*
G75*
G02*
X136365000Y-87621000I-51000J0D01*
G01*
X134865000Y-87621000D01*
G75*
G02*
X134814000Y-87570000I0J51000D01*
G01*
G37*
G36*
G01*
X134814000Y-90770000D02*
X134814000Y-89770000D01*
G75*
G02*
X134865000Y-89719000I51000J0D01*
G01*
X136365000Y-89719000D01*
G75*
G02*
X136416000Y-89770000I0J-51000D01*
G01*
X136416000Y-90770000D01*
G75*
G02*
X136365000Y-90821000I-51000J0D01*
G01*
X134865000Y-90821000D01*
G75*
G02*
X134814000Y-90770000I0J51000D01*
G01*
G37*
G36*
G01*
X139714000Y-87570000D02*
X139714000Y-86570000D01*
G75*
G02*
X139765000Y-86519000I51000J0D01*
G01*
X141265000Y-86519000D01*
G75*
G02*
X141316000Y-86570000I0J-51000D01*
G01*
X141316000Y-87570000D01*
G75*
G02*
X141265000Y-87621000I-51000J0D01*
G01*
X139765000Y-87621000D01*
G75*
G02*
X139714000Y-87570000I0J51000D01*
G01*
G37*
G36*
G01*
X139714000Y-90770000D02*
X139714000Y-89770000D01*
G75*
G02*
X139765000Y-89719000I51000J0D01*
G01*
X141265000Y-89719000D01*
G75*
G02*
X141316000Y-89770000I0J-51000D01*
G01*
X141316000Y-90770000D01*
G75*
G02*
X141265000Y-90821000I-51000J0D01*
G01*
X139765000Y-90821000D01*
G75*
G02*
X139714000Y-90770000I0J51000D01*
G01*
G37*
G36*
G01*
X134814000Y-77540000D02*
X134814000Y-76540000D01*
G75*
G02*
X134865000Y-76489000I51000J0D01*
G01*
X136365000Y-76489000D01*
G75*
G02*
X136416000Y-76540000I0J-51000D01*
G01*
X136416000Y-77540000D01*
G75*
G02*
X136365000Y-77591000I-51000J0D01*
G01*
X134865000Y-77591000D01*
G75*
G02*
X134814000Y-77540000I0J51000D01*
G01*
G37*
G36*
G01*
X134814000Y-80740000D02*
X134814000Y-79740000D01*
G75*
G02*
X134865000Y-79689000I51000J0D01*
G01*
X136365000Y-79689000D01*
G75*
G02*
X136416000Y-79740000I0J-51000D01*
G01*
X136416000Y-80740000D01*
G75*
G02*
X136365000Y-80791000I-51000J0D01*
G01*
X134865000Y-80791000D01*
G75*
G02*
X134814000Y-80740000I0J51000D01*
G01*
G37*
G36*
G01*
X139714000Y-77540000D02*
X139714000Y-76540000D01*
G75*
G02*
X139765000Y-76489000I51000J0D01*
G01*
X141265000Y-76489000D01*
G75*
G02*
X141316000Y-76540000I0J-51000D01*
G01*
X141316000Y-77540000D01*
G75*
G02*
X141265000Y-77591000I-51000J0D01*
G01*
X139765000Y-77591000D01*
G75*
G02*
X139714000Y-77540000I0J51000D01*
G01*
G37*
G36*
G01*
X139714000Y-80740000D02*
X139714000Y-79740000D01*
G75*
G02*
X139765000Y-79689000I51000J0D01*
G01*
X141265000Y-79689000D01*
G75*
G02*
X141316000Y-79740000I0J-51000D01*
G01*
X141316000Y-80740000D01*
G75*
G02*
X141265000Y-80791000I-51000J0D01*
G01*
X139765000Y-80791000D01*
G75*
G02*
X139714000Y-80740000I0J51000D01*
G01*
G37*
D12*
X157742537Y-59793318D03*
D13*
X167870781Y-54318185D03*
X156952773Y-55658747D03*
D10*
X161692748Y-49132444D03*
X166911404Y-50607444D03*
D14*
X167453911Y-54369370D03*
X157369643Y-55607562D03*
D15*
X159442934Y-51322955D03*
D16*
X162411777Y-54988466D03*
G36*
G01*
X157647784Y-53896220D02*
X157647784Y-53896220D01*
G75*
G02*
X157356129Y-52258877I672844J964499D01*
G01*
X158478425Y-50650103D01*
G75*
G02*
X160115768Y-50358448I964499J-672844D01*
G01*
X160115768Y-50358448D01*
G75*
G02*
X160407423Y-51995791I-672844J-964499D01*
G01*
X159285127Y-53604565D01*
G75*
G02*
X157647784Y-53896220I-964499J672844D01*
G01*
G37*
D15*
X164313748Y-49636783D03*
G36*
G01*
X164408327Y-51391614D02*
X164408327Y-51391614D01*
G75*
G02*
X163170451Y-50280932I-63597J1174279D01*
G01*
X163139011Y-49700404D01*
G75*
G02*
X164249693Y-48462528I1174279J63597D01*
G01*
X164249693Y-48462528D01*
G75*
G02*
X165487569Y-49573210I63597J-1174279D01*
G01*
X165519009Y-50153738D01*
G75*
G02*
X164408327Y-51391614I-1174279J-63597D01*
G01*
G37*
D17*
X118470000Y-111720000D03*
X118470000Y-109180000D03*
G36*
G01*
X117569000Y-107490000D02*
X117569000Y-105790000D01*
G75*
G02*
X117620000Y-105739000I51000J0D01*
G01*
X119320000Y-105739000D01*
G75*
G02*
X119371000Y-105790000I0J-51000D01*
G01*
X119371000Y-107490000D01*
G75*
G02*
X119320000Y-107541000I-51000J0D01*
G01*
X117620000Y-107541000D01*
G75*
G02*
X117569000Y-107490000I0J51000D01*
G01*
G37*
D18*
X167832853Y-118939484D03*
D16*
X165975565Y-103813081D03*
D18*
X191530885Y-116029732D03*
D16*
X189673597Y-100903328D03*
D12*
X174161372Y-115356525D03*
D13*
X184289616Y-109881392D03*
X173371608Y-111221954D03*
D10*
X178111583Y-104695651D03*
X183330239Y-106170651D03*
D14*
X183872746Y-109932577D03*
X173788478Y-111170769D03*
D15*
X175861769Y-106886162D03*
D16*
X178830612Y-110551673D03*
G36*
G01*
X174066619Y-109459427D02*
X174066619Y-109459427D01*
G75*
G02*
X173774964Y-107822084I672844J964499D01*
G01*
X174897260Y-106213310D01*
G75*
G02*
X176534603Y-105921655I964499J-672844D01*
G01*
X176534603Y-105921655D01*
G75*
G02*
X176826258Y-107558998I-672844J-964499D01*
G01*
X175703962Y-109167772D01*
G75*
G02*
X174066619Y-109459427I-964499J672844D01*
G01*
G37*
D15*
X180732583Y-105199990D03*
G36*
G01*
X180827162Y-106954821D02*
X180827162Y-106954821D01*
G75*
G02*
X179589286Y-105844139I-63597J1174279D01*
G01*
X179557846Y-105263611D01*
G75*
G02*
X180668528Y-104025735I1174279J63597D01*
G01*
X180668528Y-104025735D01*
G75*
G02*
X181906404Y-105136417I63597J-1174279D01*
G01*
X181937844Y-105716945D01*
G75*
G02*
X180827162Y-106954821I-1174279J-63597D01*
G01*
G37*
D18*
X84599115Y-116029732D03*
D16*
X86456403Y-100903328D03*
D18*
X108297147Y-118939484D03*
D16*
X110154435Y-103813081D03*
D12*
X91606446Y-114084209D03*
D13*
X102758392Y-111221954D03*
X91840384Y-109881392D03*
D10*
X98018417Y-104695651D03*
X102725222Y-107389344D03*
D14*
X102341522Y-111170769D03*
X92257254Y-109932577D03*
D15*
X95305500Y-106276815D03*
D16*
X97299388Y-110551673D03*
G36*
G01*
X92941144Y-108339357D02*
X92941144Y-108339357D01*
G75*
G02*
X93054262Y-106680093I886191J773073D01*
G01*
X94532418Y-105390615D01*
G75*
G02*
X96191682Y-105503733I773073J-886191D01*
G01*
X96191682Y-105503733D01*
G75*
G02*
X96078564Y-107162997I-886191J-773073D01*
G01*
X94600408Y-108452475D01*
G75*
G02*
X92941144Y-108339357I-773073J886191D01*
G01*
G37*
D15*
X100439551Y-105819087D03*
G36*
G01*
X100106789Y-107544672D02*
X100106789Y-107544672D01*
G75*
G02*
X99174382Y-106167513I222376J1154783D01*
G01*
X99284318Y-105596623D01*
G75*
G02*
X100661477Y-104664216I1154783J-222376D01*
G01*
X100661477Y-104664216D01*
G75*
G02*
X101593884Y-106041375I-222376J-1154783D01*
G01*
X101483948Y-106612265D01*
G75*
G02*
X100106789Y-107544672I-1154783J222376D01*
G01*
G37*
D17*
X141885000Y-72000000D03*
X139345000Y-72000000D03*
X136805000Y-72000000D03*
G36*
G01*
X135115000Y-72901000D02*
X133415000Y-72901000D01*
G75*
G02*
X133364000Y-72850000I0J51000D01*
G01*
X133364000Y-71150000D01*
G75*
G02*
X133415000Y-71099000I51000J0D01*
G01*
X135115000Y-71099000D01*
G75*
G02*
X135166000Y-71150000I0J-51000D01*
G01*
X135166000Y-72850000D01*
G75*
G02*
X135115000Y-72901000I-51000J0D01*
G01*
G37*
D12*
X238598178Y-93049884D03*
D13*
X248726422Y-87574751D03*
X237808414Y-88915313D03*
D10*
X242548389Y-82389010D03*
X247767045Y-83864010D03*
D14*
X248309552Y-87625936D03*
X238225284Y-88864128D03*
D15*
X240298575Y-84579521D03*
D16*
X243267418Y-88245032D03*
G36*
G01*
X238503425Y-87152786D02*
X238503425Y-87152786D01*
G75*
G02*
X238211770Y-85515443I672844J964499D01*
G01*
X239334066Y-83906669D01*
G75*
G02*
X240971409Y-83615014I964499J-672844D01*
G01*
X240971409Y-83615014D01*
G75*
G02*
X241263064Y-85252357I-672844J-964499D01*
G01*
X240140768Y-86861131D01*
G75*
G02*
X238503425Y-87152786I-964499J672844D01*
G01*
G37*
D15*
X245169389Y-82893349D03*
G36*
G01*
X245263968Y-84648180D02*
X245263968Y-84648180D01*
G75*
G02*
X244026092Y-83537498I-63597J1174279D01*
G01*
X243994652Y-82956970D01*
G75*
G02*
X245105334Y-81719094I1174279J63597D01*
G01*
X245105334Y-81719094D01*
G75*
G02*
X246343210Y-82829776I63597J-1174279D01*
G01*
X246374650Y-83410304D01*
G75*
G02*
X245263968Y-84648180I-1174279J-63597D01*
G01*
G37*
D12*
X236276567Y-74141879D03*
D13*
X246404811Y-68666746D03*
X235486803Y-70007308D03*
D10*
X240226778Y-63481005D03*
X245445434Y-64956005D03*
D14*
X245987941Y-68717931D03*
X235903673Y-69956123D03*
D15*
X237976964Y-65671516D03*
D16*
X240945807Y-69337027D03*
G36*
G01*
X236181814Y-68244781D02*
X236181814Y-68244781D01*
G75*
G02*
X235890159Y-66607438I672844J964499D01*
G01*
X237012455Y-64998664D01*
G75*
G02*
X238649798Y-64707009I964499J-672844D01*
G01*
X238649798Y-64707009D01*
G75*
G02*
X238941453Y-66344352I-672844J-964499D01*
G01*
X237819157Y-67953126D01*
G75*
G02*
X236181814Y-68244781I-964499J672844D01*
G01*
G37*
D15*
X242847778Y-63985344D03*
G36*
G01*
X242942357Y-65740175D02*
X242942357Y-65740175D01*
G75*
G02*
X241704481Y-64629493I-63597J1174279D01*
G01*
X241673041Y-64048965D01*
G75*
G02*
X242783723Y-62811089I1174279J63597D01*
G01*
X242783723Y-62811089D01*
G75*
G02*
X244021599Y-63921771I63597J-1174279D01*
G01*
X244053039Y-64502299D01*
G75*
G02*
X242942357Y-65740175I-1174279J-63597D01*
G01*
G37*
D12*
X233954956Y-55233875D03*
D13*
X244083200Y-49758742D03*
X233165192Y-51099304D03*
D10*
X237905167Y-44573001D03*
X243123823Y-46048001D03*
D14*
X243666330Y-49809927D03*
X233582062Y-51048119D03*
D15*
X235655353Y-46763512D03*
D16*
X238624196Y-50429023D03*
G36*
G01*
X233860203Y-49336777D02*
X233860203Y-49336777D01*
G75*
G02*
X233568548Y-47699434I672844J964499D01*
G01*
X234690844Y-46090660D01*
G75*
G02*
X236328187Y-45799005I964499J-672844D01*
G01*
X236328187Y-45799005D01*
G75*
G02*
X236619842Y-47436348I-672844J-964499D01*
G01*
X235497546Y-49045122D01*
G75*
G02*
X233860203Y-49336777I-964499J672844D01*
G01*
G37*
D15*
X240526167Y-45077340D03*
G36*
G01*
X240620746Y-46832171D02*
X240620746Y-46832171D01*
G75*
G02*
X239382870Y-45721489I-63597J1174279D01*
G01*
X239351430Y-45140961D01*
G75*
G02*
X240462112Y-43903085I1174279J63597D01*
G01*
X240462112Y-43903085D01*
G75*
G02*
X241699988Y-45013767I63597J-1174279D01*
G01*
X241731428Y-45594295D01*
G75*
G02*
X240620746Y-46832171I-1174279J-63597D01*
G01*
G37*
D12*
X219109771Y-90644494D03*
D13*
X229238015Y-85169361D03*
X218320007Y-86509923D03*
D10*
X223059982Y-79983620D03*
X228278638Y-81458620D03*
D14*
X228821145Y-85220546D03*
X218736877Y-86458738D03*
D15*
X220810168Y-82174131D03*
D16*
X223779011Y-85839642D03*
G36*
G01*
X219015018Y-84747396D02*
X219015018Y-84747396D01*
G75*
G02*
X218723363Y-83110053I672844J964499D01*
G01*
X219845659Y-81501279D01*
G75*
G02*
X221483002Y-81209624I964499J-672844D01*
G01*
X221483002Y-81209624D01*
G75*
G02*
X221774657Y-82846967I-672844J-964499D01*
G01*
X220652361Y-84455741D01*
G75*
G02*
X219015018Y-84747396I-964499J672844D01*
G01*
G37*
D15*
X225680982Y-80487959D03*
G36*
G01*
X225775561Y-82242790D02*
X225775561Y-82242790D01*
G75*
G02*
X224537685Y-81132108I-63597J1174279D01*
G01*
X224506245Y-80551580D01*
G75*
G02*
X225616927Y-79313704I1174279J63597D01*
G01*
X225616927Y-79313704D01*
G75*
G02*
X226854803Y-80424386I63597J-1174279D01*
G01*
X226886243Y-81004914D01*
G75*
G02*
X225775561Y-82242790I-1174279J-63597D01*
G01*
G37*
D12*
X216788160Y-71736489D03*
D13*
X226916404Y-66261356D03*
X215998396Y-67601918D03*
D10*
X220738371Y-61075615D03*
X225957027Y-62550615D03*
D14*
X226499534Y-66312541D03*
X216415266Y-67550733D03*
D15*
X218488557Y-63266126D03*
D16*
X221457400Y-66931637D03*
G36*
G01*
X216693407Y-65839391D02*
X216693407Y-65839391D01*
G75*
G02*
X216401752Y-64202048I672844J964499D01*
G01*
X217524048Y-62593274D01*
G75*
G02*
X219161391Y-62301619I964499J-672844D01*
G01*
X219161391Y-62301619D01*
G75*
G02*
X219453046Y-63938962I-672844J-964499D01*
G01*
X218330750Y-65547736D01*
G75*
G02*
X216693407Y-65839391I-964499J672844D01*
G01*
G37*
D15*
X223359371Y-61579954D03*
G36*
G01*
X223453950Y-63334785D02*
X223453950Y-63334785D01*
G75*
G02*
X222216074Y-62224103I-63597J1174279D01*
G01*
X222184634Y-61643575D01*
G75*
G02*
X223295316Y-60405699I1174279J63597D01*
G01*
X223295316Y-60405699D01*
G75*
G02*
X224533192Y-61516381I63597J-1174279D01*
G01*
X224564632Y-62096909D01*
G75*
G02*
X223453950Y-63334785I-1174279J-63597D01*
G01*
G37*
D12*
X214466549Y-52828485D03*
D13*
X224594793Y-47353352D03*
X213676785Y-48693914D03*
D10*
X218416760Y-42167611D03*
X223635416Y-43642611D03*
D14*
X224177923Y-47404537D03*
X214093655Y-48642729D03*
D15*
X216166946Y-44358122D03*
D16*
X219135789Y-48023633D03*
G36*
G01*
X214371796Y-46931387D02*
X214371796Y-46931387D01*
G75*
G02*
X214080141Y-45294044I672844J964499D01*
G01*
X215202437Y-43685270D01*
G75*
G02*
X216839780Y-43393615I964499J-672844D01*
G01*
X216839780Y-43393615D01*
G75*
G02*
X217131435Y-45030958I-672844J-964499D01*
G01*
X216009139Y-46639732D01*
G75*
G02*
X214371796Y-46931387I-964499J672844D01*
G01*
G37*
D15*
X221037760Y-42671950D03*
G36*
G01*
X221132339Y-44426781D02*
X221132339Y-44426781D01*
G75*
G02*
X219894463Y-43316099I-63597J1174279D01*
G01*
X219863023Y-42735571D01*
G75*
G02*
X220973705Y-41497695I1174279J63597D01*
G01*
X220973705Y-41497695D01*
G75*
G02*
X222211581Y-42608377I63597J-1174279D01*
G01*
X222243021Y-43188905D01*
G75*
G02*
X221132339Y-44426781I-1174279J-63597D01*
G01*
G37*
D12*
X199621364Y-88239104D03*
D13*
X209749608Y-82763971D03*
X198831600Y-84104533D03*
D10*
X203571575Y-77578230D03*
X208790231Y-79053230D03*
D14*
X209332738Y-82815156D03*
X199248470Y-84053348D03*
D15*
X201321761Y-79768741D03*
D16*
X204290604Y-83434252D03*
G36*
G01*
X199526611Y-82342006D02*
X199526611Y-82342006D01*
G75*
G02*
X199234956Y-80704663I672844J964499D01*
G01*
X200357252Y-79095889D01*
G75*
G02*
X201994595Y-78804234I964499J-672844D01*
G01*
X201994595Y-78804234D01*
G75*
G02*
X202286250Y-80441577I-672844J-964499D01*
G01*
X201163954Y-82050351D01*
G75*
G02*
X199526611Y-82342006I-964499J672844D01*
G01*
G37*
D15*
X206192575Y-78082569D03*
G36*
G01*
X206287154Y-79837400D02*
X206287154Y-79837400D01*
G75*
G02*
X205049278Y-78726718I-63597J1174279D01*
G01*
X205017838Y-78146190D01*
G75*
G02*
X206128520Y-76908314I1174279J63597D01*
G01*
X206128520Y-76908314D01*
G75*
G02*
X207366396Y-78018996I63597J-1174279D01*
G01*
X207397836Y-78599524D01*
G75*
G02*
X206287154Y-79837400I-1174279J-63597D01*
G01*
G37*
D12*
X197299753Y-69331099D03*
D13*
X207427997Y-63855966D03*
X196509989Y-65196528D03*
D10*
X201249964Y-58670225D03*
X206468620Y-60145225D03*
D14*
X207011127Y-63907151D03*
X196926859Y-65145343D03*
D15*
X199000150Y-60860736D03*
D16*
X201968993Y-64526247D03*
G36*
G01*
X197205000Y-63434001D02*
X197205000Y-63434001D01*
G75*
G02*
X196913345Y-61796658I672844J964499D01*
G01*
X198035641Y-60187884D01*
G75*
G02*
X199672984Y-59896229I964499J-672844D01*
G01*
X199672984Y-59896229D01*
G75*
G02*
X199964639Y-61533572I-672844J-964499D01*
G01*
X198842343Y-63142346D01*
G75*
G02*
X197205000Y-63434001I-964499J672844D01*
G01*
G37*
D15*
X203870964Y-59174564D03*
G36*
G01*
X203965543Y-60929395D02*
X203965543Y-60929395D01*
G75*
G02*
X202727667Y-59818713I-63597J1174279D01*
G01*
X202696227Y-59238185D01*
G75*
G02*
X203806909Y-58000309I1174279J63597D01*
G01*
X203806909Y-58000309D01*
G75*
G02*
X205044785Y-59110991I63597J-1174279D01*
G01*
X205076225Y-59691519D01*
G75*
G02*
X203965543Y-60929395I-1174279J-63597D01*
G01*
G37*
D12*
X194978142Y-50423095D03*
D13*
X205106386Y-44947962D03*
X194188378Y-46288524D03*
D10*
X198928353Y-39762221D03*
X204147009Y-41237221D03*
D14*
X204689516Y-44999147D03*
X194605248Y-46237339D03*
D15*
X196678539Y-41952732D03*
D16*
X199647382Y-45618243D03*
G36*
G01*
X194883389Y-44525997D02*
X194883389Y-44525997D01*
G75*
G02*
X194591734Y-42888654I672844J964499D01*
G01*
X195714030Y-41279880D01*
G75*
G02*
X197351373Y-40988225I964499J-672844D01*
G01*
X197351373Y-40988225D01*
G75*
G02*
X197643028Y-42625568I-672844J-964499D01*
G01*
X196520732Y-44234342D01*
G75*
G02*
X194883389Y-44525997I-964499J672844D01*
G01*
G37*
D15*
X201549353Y-40266560D03*
G36*
G01*
X201643932Y-42021391D02*
X201643932Y-42021391D01*
G75*
G02*
X200406056Y-40910709I-63597J1174279D01*
G01*
X200374616Y-40330181D01*
G75*
G02*
X201485298Y-39092305I1174279J63597D01*
G01*
X201485298Y-39092305D01*
G75*
G02*
X202723174Y-40202987I63597J-1174279D01*
G01*
X202754614Y-40783515D01*
G75*
G02*
X201643932Y-42021391I-1174279J-63597D01*
G01*
G37*
D12*
X204886631Y-111583938D03*
D13*
X215014875Y-106108805D03*
X204096867Y-107449367D03*
D10*
X208836842Y-100923064D03*
X214055498Y-102398064D03*
D14*
X214598005Y-106159990D03*
X204513737Y-107398182D03*
D15*
X206587028Y-103113575D03*
D16*
X209555871Y-106779086D03*
G36*
G01*
X204791878Y-105686840D02*
X204791878Y-105686840D01*
G75*
G02*
X204500223Y-104049497I672844J964499D01*
G01*
X205622519Y-102440723D01*
G75*
G02*
X207259862Y-102149068I964499J-672844D01*
G01*
X207259862Y-102149068D01*
G75*
G02*
X207551517Y-103786411I-672844J-964499D01*
G01*
X206429221Y-105395185D01*
G75*
G02*
X204791878Y-105686840I-964499J672844D01*
G01*
G37*
D15*
X211457842Y-101427403D03*
G36*
G01*
X211552421Y-103182234D02*
X211552421Y-103182234D01*
G75*
G02*
X210314545Y-102071552I-63597J1174279D01*
G01*
X210283105Y-101491024D01*
G75*
G02*
X211393787Y-100253148I1174279J63597D01*
G01*
X211393787Y-100253148D01*
G75*
G02*
X212631663Y-101363830I63597J-1174279D01*
G01*
X212663103Y-101944358D01*
G75*
G02*
X211552421Y-103182234I-1174279J-63597D01*
G01*
G37*
D12*
X181293763Y-95287716D03*
D13*
X191422007Y-89812583D03*
X180503999Y-91153145D03*
D10*
X185243974Y-84626842D03*
X190462630Y-86101842D03*
D14*
X191005137Y-89863768D03*
X180920869Y-91101960D03*
D15*
X182994160Y-86817353D03*
D16*
X185963003Y-90482864D03*
G36*
G01*
X181199010Y-89390618D02*
X181199010Y-89390618D01*
G75*
G02*
X180907355Y-87753275I672844J964499D01*
G01*
X182029651Y-86144501D01*
G75*
G02*
X183666994Y-85852846I964499J-672844D01*
G01*
X183666994Y-85852846D01*
G75*
G02*
X183958649Y-87490189I-672844J-964499D01*
G01*
X182836353Y-89098963D01*
G75*
G02*
X181199010Y-89390618I-964499J672844D01*
G01*
G37*
D15*
X187864974Y-85131181D03*
G36*
G01*
X187959553Y-86886012D02*
X187959553Y-86886012D01*
G75*
G02*
X186721677Y-85775330I-63597J1174279D01*
G01*
X186690237Y-85194802D01*
G75*
G02*
X187800919Y-83956926I1174279J63597D01*
G01*
X187800919Y-83956926D01*
G75*
G02*
X189038795Y-85067608I63597J-1174279D01*
G01*
X189070235Y-85648136D01*
G75*
G02*
X187959553Y-86886012I-1174279J-63597D01*
G01*
G37*
D12*
X178972152Y-76379711D03*
D13*
X189100396Y-70904578D03*
X178182388Y-72245140D03*
D10*
X182922363Y-65718837D03*
X188141019Y-67193837D03*
D14*
X188683526Y-70955763D03*
X178599258Y-72193955D03*
D15*
X180672549Y-67909348D03*
D16*
X183641392Y-71574859D03*
G36*
G01*
X178877399Y-70482613D02*
X178877399Y-70482613D01*
G75*
G02*
X178585744Y-68845270I672844J964499D01*
G01*
X179708040Y-67236496D01*
G75*
G02*
X181345383Y-66944841I964499J-672844D01*
G01*
X181345383Y-66944841D01*
G75*
G02*
X181637038Y-68582184I-672844J-964499D01*
G01*
X180514742Y-70190958D01*
G75*
G02*
X178877399Y-70482613I-964499J672844D01*
G01*
G37*
D15*
X185543363Y-66223176D03*
G36*
G01*
X185637942Y-67978007D02*
X185637942Y-67978007D01*
G75*
G02*
X184400066Y-66867325I-63597J1174279D01*
G01*
X184368626Y-66286797D01*
G75*
G02*
X185479308Y-65048921I1174279J63597D01*
G01*
X185479308Y-65048921D01*
G75*
G02*
X186717184Y-66159603I63597J-1174279D01*
G01*
X186748624Y-66740131D01*
G75*
G02*
X185637942Y-67978007I-1174279J-63597D01*
G01*
G37*
D12*
X176650541Y-57471707D03*
D13*
X186778785Y-51996574D03*
X175860777Y-53337136D03*
D10*
X180600752Y-46810833D03*
X185819408Y-48285833D03*
D14*
X186361915Y-52047759D03*
X176277647Y-53285951D03*
D15*
X178350938Y-49001344D03*
D16*
X181319781Y-52666855D03*
G36*
G01*
X176555788Y-51574609D02*
X176555788Y-51574609D01*
G75*
G02*
X176264133Y-49937266I672844J964499D01*
G01*
X177386429Y-48328492D01*
G75*
G02*
X179023772Y-48036837I964499J-672844D01*
G01*
X179023772Y-48036837D01*
G75*
G02*
X179315427Y-49674180I-672844J-964499D01*
G01*
X178193131Y-51282954D01*
G75*
G02*
X176555788Y-51574609I-964499J672844D01*
G01*
G37*
D15*
X183221752Y-47315172D03*
G36*
G01*
X183316331Y-49070003D02*
X183316331Y-49070003D01*
G75*
G02*
X182078455Y-47959321I-63597J1174279D01*
G01*
X182047015Y-47378793D01*
G75*
G02*
X183157697Y-46140917I1174279J63597D01*
G01*
X183157697Y-46140917D01*
G75*
G02*
X184395573Y-47251599I63597J-1174279D01*
G01*
X184427013Y-47832127D01*
G75*
G02*
X183316331Y-49070003I-1174279J-63597D01*
G01*
G37*
D12*
X162385758Y-97609327D03*
D13*
X172514002Y-92134194D03*
X161595994Y-93474756D03*
D10*
X166335969Y-86948453D03*
X171554625Y-88423453D03*
D14*
X172097132Y-92185379D03*
X162012864Y-93423571D03*
D15*
X164086155Y-89138964D03*
D16*
X167054998Y-92804475D03*
G36*
G01*
X162291005Y-91712229D02*
X162291005Y-91712229D01*
G75*
G02*
X161999350Y-90074886I672844J964499D01*
G01*
X163121646Y-88466112D01*
G75*
G02*
X164758989Y-88174457I964499J-672844D01*
G01*
X164758989Y-88174457D01*
G75*
G02*
X165050644Y-89811800I-672844J-964499D01*
G01*
X163928348Y-91420574D01*
G75*
G02*
X162291005Y-91712229I-964499J672844D01*
G01*
G37*
D15*
X168956969Y-87452792D03*
G36*
G01*
X169051548Y-89207623D02*
X169051548Y-89207623D01*
G75*
G02*
X167813672Y-88096941I-63597J1174279D01*
G01*
X167782232Y-87516413D01*
G75*
G02*
X168892914Y-86278537I1174279J63597D01*
G01*
X168892914Y-86278537D01*
G75*
G02*
X170130790Y-87389219I63597J-1174279D01*
G01*
X170162230Y-87969747D01*
G75*
G02*
X169051548Y-89207623I-1174279J-63597D01*
G01*
G37*
D12*
X160064148Y-78701322D03*
D13*
X170192392Y-73226189D03*
X159274384Y-74566751D03*
D10*
X164014359Y-68040448D03*
X169233015Y-69515448D03*
D14*
X169775522Y-73277374D03*
X159691254Y-74515566D03*
D15*
X161764545Y-70230959D03*
D16*
X164733388Y-73896470D03*
G36*
G01*
X159969395Y-72804224D02*
X159969395Y-72804224D01*
G75*
G02*
X159677740Y-71166881I672844J964499D01*
G01*
X160800036Y-69558107D01*
G75*
G02*
X162437379Y-69266452I964499J-672844D01*
G01*
X162437379Y-69266452D01*
G75*
G02*
X162729034Y-70903795I-672844J-964499D01*
G01*
X161606738Y-72512569D01*
G75*
G02*
X159969395Y-72804224I-964499J672844D01*
G01*
G37*
D15*
X166635359Y-68544787D03*
G36*
G01*
X166729938Y-70299618D02*
X166729938Y-70299618D01*
G75*
G02*
X165492062Y-69188936I-63597J1174279D01*
G01*
X165460622Y-68608408D01*
G75*
G02*
X166571304Y-67370532I1174279J63597D01*
G01*
X166571304Y-67370532D01*
G75*
G02*
X167809180Y-68481214I63597J-1174279D01*
G01*
X167840620Y-69061742D01*
G75*
G02*
X166729938Y-70299618I-1174279J-63597D01*
G01*
G37*
D12*
X103382060Y-96337011D03*
D13*
X114534006Y-93474756D03*
X103615998Y-92134194D03*
D10*
X109794031Y-86948453D03*
X114500836Y-89642146D03*
D14*
X114117136Y-93423571D03*
X104032868Y-92185379D03*
D15*
X107081114Y-88529617D03*
D16*
X109075002Y-92804475D03*
G36*
G01*
X104716758Y-90592159D02*
X104716758Y-90592159D01*
G75*
G02*
X104829876Y-88932895I886191J773073D01*
G01*
X106308032Y-87643417D01*
G75*
G02*
X107967296Y-87756535I773073J-886191D01*
G01*
X107967296Y-87756535D01*
G75*
G02*
X107854178Y-89415799I-886191J-773073D01*
G01*
X106376022Y-90705277D01*
G75*
G02*
X104716758Y-90592159I-773073J886191D01*
G01*
G37*
D15*
X112215165Y-88071889D03*
G36*
G01*
X111882403Y-89797474D02*
X111882403Y-89797474D01*
G75*
G02*
X110949996Y-88420315I222376J1154783D01*
G01*
X111059932Y-87849425D01*
G75*
G02*
X112437091Y-86917018I1154783J-222376D01*
G01*
X112437091Y-86917018D01*
G75*
G02*
X113369498Y-88294177I-222376J-1154783D01*
G01*
X113259562Y-88865067D01*
G75*
G02*
X111882403Y-89797474I-1154783J222376D01*
G01*
G37*
D12*
X105703670Y-77429006D03*
D13*
X116855616Y-74566751D03*
X105937608Y-73226189D03*
D10*
X112115641Y-68040448D03*
X116822446Y-70734141D03*
D14*
X116438746Y-74515566D03*
X106354478Y-73277374D03*
D15*
X109402724Y-69621612D03*
D16*
X111396612Y-73896470D03*
G36*
G01*
X107038368Y-71684154D02*
X107038368Y-71684154D01*
G75*
G02*
X107151486Y-70024890I886191J773073D01*
G01*
X108629642Y-68735412D01*
G75*
G02*
X110288906Y-68848530I773073J-886191D01*
G01*
X110288906Y-68848530D01*
G75*
G02*
X110175788Y-70507794I-886191J-773073D01*
G01*
X108697632Y-71797272D01*
G75*
G02*
X107038368Y-71684154I-773073J886191D01*
G01*
G37*
D15*
X114536775Y-69163884D03*
G36*
G01*
X114204013Y-70889469D02*
X114204013Y-70889469D01*
G75*
G02*
X113271606Y-69512310I222376J1154783D01*
G01*
X113381542Y-68941420D01*
G75*
G02*
X114758701Y-68009013I1154783J-222376D01*
G01*
X114758701Y-68009013D01*
G75*
G02*
X115691108Y-69386172I-222376J-1154783D01*
G01*
X115581172Y-69957062D01*
G75*
G02*
X114204013Y-70889469I-1154783J222376D01*
G01*
G37*
D12*
X108025281Y-58521002D03*
D13*
X119177227Y-55658747D03*
X108259219Y-54318185D03*
D10*
X114437252Y-49132444D03*
X119144057Y-51826137D03*
D14*
X118760357Y-55607562D03*
X108676089Y-54369370D03*
D15*
X111724335Y-50713608D03*
D16*
X113718223Y-54988466D03*
G36*
G01*
X109359979Y-52776150D02*
X109359979Y-52776150D01*
G75*
G02*
X109473097Y-51116886I886191J773073D01*
G01*
X110951253Y-49827408D01*
G75*
G02*
X112610517Y-49940526I773073J-886191D01*
G01*
X112610517Y-49940526D01*
G75*
G02*
X112497399Y-51599790I-886191J-773073D01*
G01*
X111019243Y-52889268D01*
G75*
G02*
X109359979Y-52776150I-773073J886191D01*
G01*
G37*
D15*
X116858386Y-50255880D03*
G36*
G01*
X116525624Y-51981465D02*
X116525624Y-51981465D01*
G75*
G02*
X115593217Y-50604306I222376J1154783D01*
G01*
X115703153Y-50033416D01*
G75*
G02*
X117080312Y-49101009I1154783J-222376D01*
G01*
X117080312Y-49101009D01*
G75*
G02*
X118012719Y-50478168I-222376J-1154783D01*
G01*
X117902783Y-51049058D01*
G75*
G02*
X116525624Y-51981465I-1154783J222376D01*
G01*
G37*
D12*
X60881187Y-110311622D03*
D13*
X72033133Y-107449367D03*
X61115125Y-106108805D03*
D10*
X67293158Y-100923064D03*
X71999963Y-103616757D03*
D14*
X71616263Y-107398182D03*
X61531995Y-106159990D03*
D15*
X64580241Y-102504228D03*
D16*
X66574129Y-106779086D03*
G36*
G01*
X62215885Y-104566770D02*
X62215885Y-104566770D01*
G75*
G02*
X62329003Y-102907506I886191J773073D01*
G01*
X63807159Y-101618028D01*
G75*
G02*
X65466423Y-101731146I773073J-886191D01*
G01*
X65466423Y-101731146D01*
G75*
G02*
X65353305Y-103390410I-886191J-773073D01*
G01*
X63875149Y-104679888D01*
G75*
G02*
X62215885Y-104566770I-773073J886191D01*
G01*
G37*
D15*
X69714292Y-102046500D03*
G36*
G01*
X69381530Y-103772085D02*
X69381530Y-103772085D01*
G75*
G02*
X68449123Y-102394926I222376J1154783D01*
G01*
X68559059Y-101824036D01*
G75*
G02*
X69936218Y-100891629I1154783J-222376D01*
G01*
X69936218Y-100891629D01*
G75*
G02*
X70868625Y-102268788I-222376J-1154783D01*
G01*
X70758689Y-102839678D01*
G75*
G02*
X69381530Y-103772085I-1154783J222376D01*
G01*
G37*
D12*
X84474055Y-94015400D03*
D13*
X95626001Y-91153145D03*
X84707993Y-89812583D03*
D10*
X90886026Y-84626842D03*
X95592831Y-87320535D03*
D14*
X95209131Y-91101960D03*
X85124863Y-89863768D03*
D15*
X88173109Y-86208006D03*
D16*
X90166997Y-90482864D03*
G36*
G01*
X85808753Y-88270548D02*
X85808753Y-88270548D01*
G75*
G02*
X85921871Y-86611284I886191J773073D01*
G01*
X87400027Y-85321806D01*
G75*
G02*
X89059291Y-85434924I773073J-886191D01*
G01*
X89059291Y-85434924D01*
G75*
G02*
X88946173Y-87094188I-886191J-773073D01*
G01*
X87468017Y-88383666D01*
G75*
G02*
X85808753Y-88270548I-773073J886191D01*
G01*
G37*
D15*
X93307160Y-85750278D03*
G36*
G01*
X92974398Y-87475863D02*
X92974398Y-87475863D01*
G75*
G02*
X92041991Y-86098704I222376J1154783D01*
G01*
X92151927Y-85527814D01*
G75*
G02*
X93529086Y-84595407I1154783J-222376D01*
G01*
X93529086Y-84595407D01*
G75*
G02*
X94461493Y-85972566I-222376J-1154783D01*
G01*
X94351557Y-86543456D01*
G75*
G02*
X92974398Y-87475863I-1154783J222376D01*
G01*
G37*
D12*
X86795666Y-75107395D03*
D13*
X97947612Y-72245140D03*
X87029604Y-70904578D03*
D10*
X93207637Y-65718837D03*
X97914442Y-68412530D03*
D14*
X97530742Y-72193955D03*
X87446474Y-70955763D03*
D15*
X90494720Y-67300001D03*
D16*
X92488608Y-71574859D03*
G36*
G01*
X88130364Y-69362543D02*
X88130364Y-69362543D01*
G75*
G02*
X88243482Y-67703279I886191J773073D01*
G01*
X89721638Y-66413801D01*
G75*
G02*
X91380902Y-66526919I773073J-886191D01*
G01*
X91380902Y-66526919D01*
G75*
G02*
X91267784Y-68186183I-886191J-773073D01*
G01*
X89789628Y-69475661D01*
G75*
G02*
X88130364Y-69362543I-773073J886191D01*
G01*
G37*
D15*
X95628771Y-66842273D03*
G36*
G01*
X95296009Y-68567858D02*
X95296009Y-68567858D01*
G75*
G02*
X94363602Y-67190699I222376J1154783D01*
G01*
X94473538Y-66619809D01*
G75*
G02*
X95850697Y-65687402I1154783J-222376D01*
G01*
X95850697Y-65687402D01*
G75*
G02*
X96783104Y-67064561I-222376J-1154783D01*
G01*
X96673168Y-67635451D01*
G75*
G02*
X95296009Y-68567858I-1154783J222376D01*
G01*
G37*
D12*
X89117277Y-56199391D03*
D13*
X100269223Y-53337136D03*
X89351215Y-51996574D03*
D10*
X95529248Y-46810833D03*
X100236053Y-49504526D03*
D14*
X99852353Y-53285951D03*
X89768085Y-52047759D03*
D15*
X92816331Y-48391997D03*
D16*
X94810219Y-52666855D03*
G36*
G01*
X90451975Y-50454539D02*
X90451975Y-50454539D01*
G75*
G02*
X90565093Y-48795275I886191J773073D01*
G01*
X92043249Y-47505797D01*
G75*
G02*
X93702513Y-47618915I773073J-886191D01*
G01*
X93702513Y-47618915D01*
G75*
G02*
X93589395Y-49278179I-886191J-773073D01*
G01*
X92111239Y-50567657D01*
G75*
G02*
X90451975Y-50454539I-773073J886191D01*
G01*
G37*
D15*
X97950382Y-47934269D03*
G36*
G01*
X97617620Y-49659854D02*
X97617620Y-49659854D01*
G75*
G02*
X96685213Y-48282695I222376J1154783D01*
G01*
X96795149Y-47711805D01*
G75*
G02*
X98172308Y-46779398I1154783J-222376D01*
G01*
X98172308Y-46779398D01*
G75*
G02*
X99104715Y-48156557I-222376J-1154783D01*
G01*
X98994779Y-48727447D01*
G75*
G02*
X97617620Y-49659854I-1154783J222376D01*
G01*
G37*
D12*
X66146454Y-86966788D03*
D13*
X77298400Y-84104533D03*
X66380392Y-82763971D03*
D10*
X72558425Y-77578230D03*
X77265230Y-80271923D03*
D14*
X76881530Y-84053348D03*
X66797262Y-82815156D03*
D15*
X69845508Y-79159394D03*
D16*
X71839396Y-83434252D03*
G36*
G01*
X67481152Y-81221936D02*
X67481152Y-81221936D01*
G75*
G02*
X67594270Y-79562672I886191J773073D01*
G01*
X69072426Y-78273194D01*
G75*
G02*
X70731690Y-78386312I773073J-886191D01*
G01*
X70731690Y-78386312D01*
G75*
G02*
X70618572Y-80045576I-886191J-773073D01*
G01*
X69140416Y-81335054D01*
G75*
G02*
X67481152Y-81221936I-773073J886191D01*
G01*
G37*
D15*
X74979559Y-78701666D03*
G36*
G01*
X74646797Y-80427251D02*
X74646797Y-80427251D01*
G75*
G02*
X73714390Y-79050092I222376J1154783D01*
G01*
X73824326Y-78479202D01*
G75*
G02*
X75201485Y-77546795I1154783J-222376D01*
G01*
X75201485Y-77546795D01*
G75*
G02*
X76133892Y-78923954I-222376J-1154783D01*
G01*
X76023956Y-79494844D01*
G75*
G02*
X74646797Y-80427251I-1154783J222376D01*
G01*
G37*
D12*
X68468065Y-68058783D03*
D13*
X79620011Y-65196528D03*
X68702003Y-63855966D03*
D10*
X74880036Y-58670225D03*
X79586841Y-61363918D03*
D14*
X79203141Y-65145343D03*
X69118873Y-63907151D03*
D15*
X72167119Y-60251389D03*
D16*
X74161007Y-64526247D03*
G36*
G01*
X69802763Y-62313931D02*
X69802763Y-62313931D01*
G75*
G02*
X69915881Y-60654667I886191J773073D01*
G01*
X71394037Y-59365189D01*
G75*
G02*
X73053301Y-59478307I773073J-886191D01*
G01*
X73053301Y-59478307D01*
G75*
G02*
X72940183Y-61137571I-886191J-773073D01*
G01*
X71462027Y-62427049D01*
G75*
G02*
X69802763Y-62313931I-773073J886191D01*
G01*
G37*
D15*
X77301170Y-59793661D03*
G36*
G01*
X76968408Y-61519246D02*
X76968408Y-61519246D01*
G75*
G02*
X76036001Y-60142087I222376J1154783D01*
G01*
X76145937Y-59571197D01*
G75*
G02*
X77523096Y-58638790I1154783J-222376D01*
G01*
X77523096Y-58638790D01*
G75*
G02*
X78455503Y-60015949I-222376J-1154783D01*
G01*
X78345567Y-60586839D01*
G75*
G02*
X76968408Y-61519246I-1154783J222376D01*
G01*
G37*
D12*
X70789676Y-49150779D03*
D13*
X81941622Y-46288524D03*
X71023614Y-44947962D03*
D10*
X77201647Y-39762221D03*
X81908452Y-42455914D03*
D14*
X81524752Y-46237339D03*
X71440484Y-44999147D03*
D15*
X74488730Y-41343385D03*
D16*
X76482618Y-45618243D03*
G36*
G01*
X72124374Y-43405927D02*
X72124374Y-43405927D01*
G75*
G02*
X72237492Y-41746663I886191J773073D01*
G01*
X73715648Y-40457185D01*
G75*
G02*
X75374912Y-40570303I773073J-886191D01*
G01*
X75374912Y-40570303D01*
G75*
G02*
X75261794Y-42229567I-886191J-773073D01*
G01*
X73783638Y-43519045D01*
G75*
G02*
X72124374Y-43405927I-773073J886191D01*
G01*
G37*
D15*
X79622781Y-40885657D03*
G36*
G01*
X79290019Y-42611242D02*
X79290019Y-42611242D01*
G75*
G02*
X78357612Y-41234083I222376J1154783D01*
G01*
X78467548Y-40663193D01*
G75*
G02*
X79844707Y-39730786I1154783J-222376D01*
G01*
X79844707Y-39730786D01*
G75*
G02*
X80777114Y-41107945I-222376J-1154783D01*
G01*
X80667178Y-41678835D01*
G75*
G02*
X79290019Y-42611242I-1154783J222376D01*
G01*
G37*
D12*
X46658047Y-89372178D03*
D13*
X57809993Y-86509923D03*
X46891985Y-85169361D03*
D10*
X53070018Y-79983620D03*
X57776823Y-82677313D03*
D14*
X57393123Y-86458738D03*
X47308855Y-85220546D03*
D15*
X50357101Y-81564784D03*
D16*
X52350989Y-85839642D03*
G36*
G01*
X47992745Y-83627326D02*
X47992745Y-83627326D01*
G75*
G02*
X48105863Y-81968062I886191J773073D01*
G01*
X49584019Y-80678584D01*
G75*
G02*
X51243283Y-80791702I773073J-886191D01*
G01*
X51243283Y-80791702D01*
G75*
G02*
X51130165Y-82450966I-886191J-773073D01*
G01*
X49652009Y-83740444D01*
G75*
G02*
X47992745Y-83627326I-773073J886191D01*
G01*
G37*
D15*
X55491152Y-81107056D03*
G36*
G01*
X55158390Y-82832641D02*
X55158390Y-82832641D01*
G75*
G02*
X54225983Y-81455482I222376J1154783D01*
G01*
X54335919Y-80884592D01*
G75*
G02*
X55713078Y-79952185I1154783J-222376D01*
G01*
X55713078Y-79952185D01*
G75*
G02*
X56645485Y-81329344I-222376J-1154783D01*
G01*
X56535549Y-81900234D01*
G75*
G02*
X55158390Y-82832641I-1154783J222376D01*
G01*
G37*
D12*
X48979658Y-70464173D03*
D13*
X60131604Y-67601918D03*
X49213596Y-66261356D03*
D10*
X55391629Y-61075615D03*
X60098434Y-63769308D03*
D14*
X59714734Y-67550733D03*
X49630466Y-66312541D03*
D15*
X52678712Y-62656779D03*
D16*
X54672600Y-66931637D03*
G36*
G01*
X50314356Y-64719321D02*
X50314356Y-64719321D01*
G75*
G02*
X50427474Y-63060057I886191J773073D01*
G01*
X51905630Y-61770579D01*
G75*
G02*
X53564894Y-61883697I773073J-886191D01*
G01*
X53564894Y-61883697D01*
G75*
G02*
X53451776Y-63542961I-886191J-773073D01*
G01*
X51973620Y-64832439D01*
G75*
G02*
X50314356Y-64719321I-773073J886191D01*
G01*
G37*
D15*
X57812763Y-62199051D03*
G36*
G01*
X57480001Y-63924636D02*
X57480001Y-63924636D01*
G75*
G02*
X56547594Y-62547477I222376J1154783D01*
G01*
X56657530Y-61976587D01*
G75*
G02*
X58034689Y-61044180I1154783J-222376D01*
G01*
X58034689Y-61044180D01*
G75*
G02*
X58967096Y-62421339I-222376J-1154783D01*
G01*
X58857160Y-62992229D01*
G75*
G02*
X57480001Y-63924636I-1154783J222376D01*
G01*
G37*
D12*
X51301269Y-51556169D03*
D13*
X62453215Y-48693914D03*
X51535207Y-47353352D03*
D10*
X57713240Y-42167611D03*
X62420045Y-44861304D03*
D14*
X62036345Y-48642729D03*
X51952077Y-47404537D03*
D15*
X55000323Y-43748775D03*
D16*
X56994211Y-48023633D03*
G36*
G01*
X52635967Y-45811317D02*
X52635967Y-45811317D01*
G75*
G02*
X52749085Y-44152053I886191J773073D01*
G01*
X54227241Y-42862575D01*
G75*
G02*
X55886505Y-42975693I773073J-886191D01*
G01*
X55886505Y-42975693D01*
G75*
G02*
X55773387Y-44634957I-886191J-773073D01*
G01*
X54295231Y-45924435D01*
G75*
G02*
X52635967Y-45811317I-773073J886191D01*
G01*
G37*
D15*
X60134374Y-43291047D03*
G36*
G01*
X59801612Y-45016632D02*
X59801612Y-45016632D01*
G75*
G02*
X58869205Y-43639473I222376J1154783D01*
G01*
X58979141Y-43068583D01*
G75*
G02*
X60356300Y-42136176I1154783J-222376D01*
G01*
X60356300Y-42136176D01*
G75*
G02*
X61288707Y-43513335I-222376J-1154783D01*
G01*
X61178771Y-44084225D01*
G75*
G02*
X59801612Y-45016632I-1154783J222376D01*
G01*
G37*
D12*
X27169640Y-91777568D03*
D13*
X38321586Y-88915313D03*
X27403578Y-87574751D03*
D10*
X33581611Y-82389010D03*
X38288416Y-85082703D03*
D14*
X37904716Y-88864128D03*
X27820448Y-87625936D03*
D15*
X30868694Y-83970174D03*
D16*
X32862582Y-88245032D03*
G36*
G01*
X28504338Y-86032716D02*
X28504338Y-86032716D01*
G75*
G02*
X28617456Y-84373452I886191J773073D01*
G01*
X30095612Y-83083974D01*
G75*
G02*
X31754876Y-83197092I773073J-886191D01*
G01*
X31754876Y-83197092D01*
G75*
G02*
X31641758Y-84856356I-886191J-773073D01*
G01*
X30163602Y-86145834D01*
G75*
G02*
X28504338Y-86032716I-773073J886191D01*
G01*
G37*
D15*
X36002745Y-83512446D03*
G36*
G01*
X35669983Y-85238031D02*
X35669983Y-85238031D01*
G75*
G02*
X34737576Y-83860872I222376J1154783D01*
G01*
X34847512Y-83289982D01*
G75*
G02*
X36224671Y-82357575I1154783J-222376D01*
G01*
X36224671Y-82357575D01*
G75*
G02*
X37157078Y-83734734I-222376J-1154783D01*
G01*
X37047142Y-84305624D01*
G75*
G02*
X35669983Y-85238031I-1154783J222376D01*
G01*
G37*
D12*
X29491251Y-72869563D03*
D13*
X40643197Y-70007308D03*
X29725189Y-68666746D03*
D10*
X35903222Y-63481005D03*
X40610027Y-66174698D03*
D14*
X40226327Y-69956123D03*
X30142059Y-68717931D03*
D15*
X33190305Y-65062169D03*
D16*
X35184193Y-69337027D03*
G36*
G01*
X30825949Y-67124711D02*
X30825949Y-67124711D01*
G75*
G02*
X30939067Y-65465447I886191J773073D01*
G01*
X32417223Y-64175969D01*
G75*
G02*
X34076487Y-64289087I773073J-886191D01*
G01*
X34076487Y-64289087D01*
G75*
G02*
X33963369Y-65948351I-886191J-773073D01*
G01*
X32485213Y-67237829D01*
G75*
G02*
X30825949Y-67124711I-773073J886191D01*
G01*
G37*
D15*
X38324356Y-64604441D03*
G36*
G01*
X37991594Y-66330026D02*
X37991594Y-66330026D01*
G75*
G02*
X37059187Y-64952867I222376J1154783D01*
G01*
X37169123Y-64381977D01*
G75*
G02*
X38546282Y-63449570I1154783J-222376D01*
G01*
X38546282Y-63449570D01*
G75*
G02*
X39478689Y-64826729I-222376J-1154783D01*
G01*
X39368753Y-65397619D01*
G75*
G02*
X37991594Y-66330026I-1154783J222376D01*
G01*
G37*
D12*
X31812862Y-53961559D03*
D13*
X42964808Y-51099304D03*
X32046800Y-49758742D03*
D10*
X38224833Y-44573001D03*
X42931638Y-47266694D03*
D14*
X42547938Y-51048119D03*
X32463670Y-49809927D03*
D15*
X35511916Y-46154165D03*
D16*
X37505804Y-50429023D03*
G36*
G01*
X33147560Y-48216707D02*
X33147560Y-48216707D01*
G75*
G02*
X33260678Y-46557443I886191J773073D01*
G01*
X34738834Y-45267965D01*
G75*
G02*
X36398098Y-45381083I773073J-886191D01*
G01*
X36398098Y-45381083D01*
G75*
G02*
X36284980Y-47040347I-886191J-773073D01*
G01*
X34806824Y-48329825D01*
G75*
G02*
X33147560Y-48216707I-773073J886191D01*
G01*
G37*
D15*
X40645967Y-45696437D03*
G36*
G01*
X40313205Y-47422022D02*
X40313205Y-47422022D01*
G75*
G02*
X39380798Y-46044863I222376J1154783D01*
G01*
X39490734Y-45473973D01*
G75*
G02*
X40867893Y-44541566I1154783J-222376D01*
G01*
X40867893Y-44541566D01*
G75*
G02*
X41800300Y-45918725I-222376J-1154783D01*
G01*
X41690364Y-46489615D01*
G75*
G02*
X40313205Y-47422022I-1154783J222376D01*
G01*
G37*
D19*
X140955000Y-41450000D03*
X135175000Y-41450000D03*
D20*
X133745000Y-41980000D03*
X142385000Y-41980000D03*
D21*
X133745000Y-37800000D03*
X142385000Y-37800000D03*
D22*
G36*
X140065613Y-53861855D02*
G01*
X140070509Y-53865126D01*
X140260493Y-53943820D01*
X140359597Y-53963533D01*
X140361101Y-53964852D01*
X140360711Y-53966814D01*
X140359656Y-53967444D01*
X140355519Y-53968398D01*
X140355460Y-53968411D01*
X140264207Y-53986562D01*
X140248718Y-53992978D01*
X140248402Y-53993079D01*
X140230087Y-53997299D01*
X140135045Y-54040062D01*
X140134989Y-54040086D01*
X140054253Y-54073528D01*
X140052270Y-54073267D01*
X140051505Y-54071419D01*
X140052377Y-54070017D01*
X140058566Y-54065882D01*
X140077280Y-54050522D01*
X140092575Y-54031885D01*
X140103940Y-54010621D01*
X140110940Y-53987546D01*
X140113302Y-53963555D01*
X140110939Y-53939564D01*
X140103938Y-53916489D01*
X140092573Y-53895225D01*
X140077277Y-53876589D01*
X140063233Y-53865064D01*
X140062529Y-53863192D01*
X140063797Y-53861646D01*
X140065613Y-53861855D01*
G37*
G36*
X141101232Y-53840844D02*
G01*
X141100505Y-53842521D01*
X141086462Y-53854046D01*
X141071166Y-53872683D01*
X141059801Y-53893947D01*
X141052801Y-53917022D01*
X141050438Y-53941013D01*
X141052801Y-53965004D01*
X141059801Y-53988079D01*
X141071166Y-54009343D01*
X141086461Y-54027979D01*
X141105087Y-54043265D01*
X141125277Y-54053669D01*
X141126359Y-54055351D01*
X141125443Y-54057129D01*
X141123652Y-54057317D01*
X141039995Y-54025581D01*
X141039939Y-54025559D01*
X140945793Y-53986562D01*
X140927766Y-53982976D01*
X140927447Y-53982884D01*
X140911357Y-53976780D01*
X140817189Y-53960979D01*
X140817130Y-53960969D01*
X140810075Y-53959566D01*
X140808571Y-53958247D01*
X140808961Y-53956285D01*
X140810075Y-53955642D01*
X140869507Y-53943820D01*
X141059491Y-53865126D01*
X141098125Y-53839312D01*
X141100121Y-53839181D01*
X141101232Y-53840844D01*
G37*
M02*
