0
SECTION
2
HEADER
9
$INSUNITS
70
4
9
$ACADVER
1
AC1014
9
$HANDSEED
5
FFFF
0
ENDSEC
0
SECTION
2
TABLES
0
TABLE
2
VPORT
5
8
100
AcDbSymbolTable
0
ENDTAB
0
TABLE
2
LTYPE
5
5
100
AcDbSymbolTable
0
LTYPE
5
14
100
AcDbSymbolTableRecord
100
AcDbLinetypeTableRecord
2
BYBLOCK
70
0
0
LTYPE
5
15
100
AcDbSymbolTableRecord
100
AcDbLinetypeTableRecord
2
BYLAYER
70
0
0
ENDTAB
0
TABLE
2
LAYER
5
2
100
AcDbSymbolTable
70
2
0
LAYER
5
50
100
AcDbSymbolTableRecord
100
AcDbLayerTableRecord
2
0
70
0
6
CONTINUOUS
0
ENDTAB
0
TABLE
2
STYLE
5
3
100
AcDbSymbolTable
70
1
0
STYLE
5
11
100
AcDbSymbolTableRecord
100
AcDbTextStyleTableRecord
2
STANDARD
70
0
0
ENDTAB
0
TABLE
2
VIEW
5
6
100
AcDbSymbolTable
70
0
0
ENDTAB
0
TABLE
2
UCS
5
7
100
AcDbSymbolTable
70
0
0
ENDTAB
0
TABLE
2
APPID
5
9
100
AcDbSymbolTable
70
2
0
APPID
5
12
100
AcDbSymbolTableRecord
100
AcDbRegAppTableRecord
2
ACAD
70
0
0
ENDTAB
0
TABLE
2
DIMSTYLE
5
A
100
AcDbSymbolTable
70
1
0
ENDTAB
0
TABLE
2
BLOCK_RECORD
5
1
100
AcDbSymbolTable
70
1
0
BLOCK_RECORD
5
1F
100
AcDbSymbolTableRecord
100
AcDbBlockTableRecord
2
*MODEL_SPACE
0
BLOCK_RECORD
5
1B
100
AcDbSymbolTableRecord
100
AcDbBlockTableRecord
2
*PAPER_SPACE
0
ENDTAB
0
ENDSEC
0
SECTION
2
BLOCKS
0
BLOCK
5
20
100
AcDbEntity
100
AcDbBlockBegin
2
*MODEL_SPACE
0
ENDBLK
5
21
100
AcDbEntity
100
AcDbBlockEnd
0
BLOCK
5
1C
100
AcDbEntity
100
AcDbBlockBegin
2
*PAPER_SPACE
0
ENDBLK
5
1D
100
AcDbEntity
100
AcDbBlockEnd
0
ENDSEC
0
SECTION
2
ENTITIES
0
SPLINE
5
100
100
AcDbEntity
8
0
100
AcDbSpline
70
0
71
3
72
14
73
10
74
0
42
0.000000001
43
0.0000000001
44
0.0000000001
40
0
40
0
40
0
40
0
40
0.19532223669346377
40
0.19532223669346377
40
0.3906444733869277
40
0.3906444733869277
40
0.58596671008039158
40
0.58596671008039158
40
0.76305007835094307
40
0.76305007835094307
40
0.76305007835094307
40
0.76305007835094307
10
24.473162084238147
20
32.923561030486198
30
0
10
23.822087961926602
20
32.923561030486198
30
0
10
23.177238463087168
20
33.050730284309331
30
0
10
21.972582001676294
20
33.545091347658797
30
0
10
21.424292211464433
20
33.907556795971928
30
0
10
20.497512688436885
20
34.822253339461533
30
0
10
20.127883472995194
20
35.36573943713411
30
0
10
19.641574169619918
20
36.507868191012257
30
0
10
19.508317940019563
20
37.087647987137103
30
0
10
19.479234705456943
20
37.677208974559171
30
0
0
LINE
5
101
100
AcDbEntity
8
0
100
AcDbLine
10
24.473162084238147
20
32.923561030486198
30
0
11
251.46683791576186
21
32.923561030486198
31
0
0
SPLINE
5
102
100
AcDbEntity
8
0
100
AcDbSpline
70
0
71
3
72
14
73
10
74
0
42
0.000000001
43
0.0000000001
44
0.0000000001
40
0
40
0
40
0
40
0
40
0.19532223669346443
40
0.19532223669346443
40
0.39064447338692843
40
0.39064447338692843
40
0.58596671008039314
40
0.58596671008039314
40
0.76305007835094474
40
0.76305007835094474
40
0.76305007835094474
40
0.76305007835094474
10
256.46076529454308
20
37.677208974559171
30
0
10
256.42868660482463
20
37.02692559755365
30
0
10
256.26989980118282
20
36.38912496549014
30
0
10
255.71678523213905
20
35.210288961422329
30
0
10
255.32774554348794
20
34.68052390413218
30
0
10
254.36849711294829
20
33.799937452111564
30
0
10
253.80745930888654
20
33.457534943819113
30
0
10
252.64275703872886
20
33.028089428213001
30
0
10
252.05711580999704
20
32.923561030486191
30
0
10
251.46683791576186
20
32.923561030486191
30
0
0
LINE
5
103
100
AcDbEntity
8
0
100
AcDbLine
10
256.46076529454308
20
37.677208974559171
30
0
11
261.02096718335753
21
130.11937260751037
31
0
0
ARC
5
104
100
AcDbEntity
8
0
100
AcDbCircle
10
256.20187198400646
20
128.78658550538518
30
0
40
4.9999999999999609
210
0
220
-0
230
1
100
AcDbArc
50
15.459515532332521
51
90.000000000000654
0
LINE
5
105
100
AcDbEntity
8
0
100
AcDbLine
10
256.2018719840064
20
133.78658550538515
30
0
11
19.738128015993581
21
133.78658550538515
31
0
0
ARC
5
106
100
AcDbEntity
8
0
100
AcDbCircle
10
19.73812801599361
20
128.78658550538512
30
0
40
5.0000000000000355
210
0
220
0
230
1
100
AcDbArc
50
90.000000000000327
51
164.54048446766731
0
LINE
5
107
100
AcDbEntity
8
0
100
AcDbLine
10
14.91903281664249
20
130.11937260751034
30
0
11
19.479234705456939
21
37.677208974559179
31
0
0
LWPOLYLINE
5
108
100
AcDbEntity
8
0
100
AcDbPolyline
90
4
70
1
43
0.0
10
146.15675640967828
20
35.986278880965735
10
146.15936203684294
20
41.655602465796868
10
153.78539746813414
20
41.652097531781195
10
171.93606071035876
20
35.974430685221328
0
LINE
5
109
100
AcDbEntity
8
0
100
AcDbLine
10
51.150941123751501
20
116.56686672031412
30
0
11
110.68965216015549
21
124.04878651772972
31
0
0
LINE
5
110
100
AcDbEntity
8
0
100
AcDbLine
10
80.316094847273689
20
35.963460930451198
30
0
11
68.923371332664487
21
34.56461037622168
31
0
0
LINE
5
111
100
AcDbEntity
8
0
100
AcDbLine
10
111.3649865607473
20
124.3679588205116
30
0
11
115.11433975288512
21
127.91721733334046
31
0
0
LINE
5
112
100
AcDbEntity
8
0
100
AcDbLine
10
67.543323083015963
20
35.957590550929062
30
0
11
27.982169765549081
21
35.939408202678649
31
0
0
LINE
5
113
100
AcDbEntity
8
0
100
AcDbLine
10
207.19677665382633
20
34.564610376221786
30
0
11
195.37337644082635
21
36.01634137975423
31
0
0
LINE
5
114
100
AcDbEntity
8
0
100
AcDbLine
10
67.586072738608721
20
35.609422546105087
30
0
11
67.543323083015963
21
35.957590550929062
31
0
0
LINE
5
115
100
AcDbEntity
8
0
100
AcDbLine
10
195.37337644082635
20
36.01634137975423
30
0
11
144.00368554108925
21
35.992731815042525
31
0
0
LINE
5
116
100
AcDbEntity
8
0
100
AcDbLine
10
144.00368554108925
20
35.992731815042525
30
0
11
144.00486633472133
21
33.423561030486198
31
0
0
LINE
5
117
100
AcDbEntity
8
0
100
AcDbLine
10
116.59360594487612
20
128.05167502087656
30
0
11
122.9996664998437
21
123.88479324732941
31
0
0
LINE
5
118
100
AcDbEntity
8
0
100
AcDbLine
10
123.65307163268079
20
123.69071475222761
30
0
11
125.58390297742834
21
123.68925752130929
31
0
0
LINE
5
119
100
AcDbEntity
8
0
100
AcDbLine
10
257.47581472219883
20
68.725619596700938
30
0
11
260.7018719840064
21
68.725619596700881
31
0
0
SPLINE
5
120
100
AcDbEntity
8
0
100
AcDbSpline
70
4
71
3
72
19
73
15
74
0
42
0.000000001
43
0.0000000001
44
0.0000000001
40
-0.76310883397173357
40
-0.76310883397173357
40
-0.76310883397173357
40
-0.76310883397173357
40
-0.71876313413020376
40
-0.71876313413020376
40
-0.53168180817047683
40
-0.53168180817047683
40
-0.38155441698586678
40
-0.38155441698586678
40
-0.38155441698586678
40
-0.28843502880275945
40
-0.28843502880275945
40
-0.13944400770978771
40
-0.13944400770978771
40
0
40
0
40
0
40
0
41
1
41
1
41
1
41
1
41
1
41
1
41
1
41
1
41
1
41
1
41
1
41
1
41
1
41
1
41
1
10
24.484020369507462
20
33.423561030486191
30
0
10
24.350983075120073
20
33.423561030486191
30
0
10
24.218207550994421
20
33.429460445853159
30
0
10
23.528661836853505
20
33.490677202926236
30
0
10
22.979959437656095
20
33.645659117074359
30
0
10
22.077676030410402
20
34.094606762204734
30
0
10
21.706622614324885
20
34.354435488918199
30
0
10
21.380740571834806
20
34.664761642018433
30
0
10
21.178605996810976
20
34.857247378870916
30
0
10
20.995210339369102
20
35.067748220381645
30
0
10
20.572662471785183
20
35.654334997502566
30
0
10
20.365623277701815
20
36.056138787072307
30
0
10
20.088682881892286
20
36.87241645480335
30
0
10
20.009997598710164
20
37.284523651717379
30
0
10
19.989433084432466
20
37.702349654304832
30
0
0
LINE
5
121
100
AcDbEntity
8
0
100
AcDbLine
10
150.40333288682532
20
123.70066455776028
30
0
11
152.33416207637242
21
123.7038966119778
31
0
0
ARC
5
122
100
AcDbEntity
8
0
100
AcDbCircle
10
19.738128015993553
20
128.78658550538518
30
0
40
4.4999999999999751
210
0
220
-0
230
1
100
AcDbArc
50
89.999999999999645
51
180
0
ARC
5
123
100
AcDbEntity
8
0
100
AcDbCircle
10
68.777128120578297
20
35.75566575819127
30
0
40
1.1999999999999973
210
0
220
0
230
1
100
AcDbArc
50
187.00000000000034
51
277.00000000000063
0
ARC
5
124
100
AcDbEntity
8
0
100
AcDbCircle
10
22.640283204223319
20
97.284079265290458
30
0
40
1.1999999999999962
210
0
220
0
230
1
100
AcDbArc
50
98.141058656543109
51
185.07501626013095
0
ARC
5
125
100
AcDbEntity
8
0
100
AcDbCircle
10
27.981618244327784
20
37.139408075938782
30
0
40
1.2000000000000104
210
0
220
0
230
1
100
AcDbArc
50
185.07501626012996
51
270.02633319950394
0
LINE
5
126
100
AcDbEntity
8
0
100
AcDbLine
10
22.470350417854306
20
98.471986184252074
30
0
11
39.933433951081092
21
100.97011999930713
31
0
0
LINE
5
127
100
AcDbEntity
8
0
100
AcDbLine
10
236.07464920399428
20
101.0602667109801
30
0
11
253.54002164910389
21
98.578186051536449
31
0
0
LINE
5
128
100
AcDbEntity
8
0
100
AcDbLine
10
251.45597963049255
20
33.423561030486198
30
0
11
251.45424717852066
21
33.423561030486198
31
0
0
ARC
5
129
100
AcDbEntity
8
0
100
AcDbCircle
10
110.54003116153555
20
125.23942229611529
30
0
40
1.1999999999999424
210
-0
220
0
230
1
100
AcDbArc
50
277.16251711048591
51
313.42960413559854
0
ARC
5
130
100
AcDbEntity
8
0
100
AcDbCircle
10
123.65397729262291
20
124.89071441046924
30
0
40
1.1999999999999809
210
0
220
0
230
1
100
AcDbArc
50
236.95763585012568
51
269.95675791893035
0
ARC
5
131
100
AcDbEntity
8
0
100
AcDbCircle
10
165.44577343272522
20
125.26465703380879
30
0
40
1.2000000000003463
210
0
220
0
230
1
100
AcDbArc
50
226.62306226341738
51
262.89014928851515
0
LINE
5
132
100
AcDbEntity
8
0
100
AcDbLine
10
152.98738853583905
20
123.89857563635266
30
0
11
159.38961617865925
21
128.07134411281282
31
0
0
LINE
5
133
100
AcDbEntity
8
0
100
AcDbLine
10
132.06368554108926
20
35.987244178311208
30
0
11
80.316094847273689
21
35.963460930451198
31
0
0
ARC
5
134
100
AcDbEntity
8
0
100
AcDbCircle
10
115.93929515209688
20
127.04575385773673
30
0
40
1.2000000000000002
210
0
220
-0
230
1
100
AcDbArc
50
56.957635850124554
51
133.42960413559763
0
LINE
5
135
100
AcDbEntity
8
0
100
AcDbLine
10
254.56657361051523
20
97.28507023539413
30
0
11
249.28052592528633
21
37.135514689610076
31
0
0
ARC
5
136
100
AcDbEntity
8
0
100
AcDbCircle
10
152.33215337480095
20
124.90389493077578
30
0
40
1.1999999999999824
210
0
220
0
230
1
100
AcDbArc
50
270.09590848007809
51
303.09503054888256
0
LINE
5
137
100
AcDbEntity
8
0
100
AcDbLine
10
24.485752821479334
20
33.423561030486198
30
0
11
24.484020369507462
21
33.423561030486191
31
0
0
LINE
5
138
100
AcDbEntity
8
0
100
AcDbLine
10
39.933433951081092
20
100.97011999930713
30
0
11
51.150941123751501
21
116.56686672031412
31
0
0
LINE
5
139
100
AcDbEntity
8
0
100
AcDbLine
10
15.238128015993588
20
68.725619596700881
30
0
11
18.464185277801235
21
68.725619596700881
31
0
0
LINE
5
140
100
AcDbEntity
8
0
100
AcDbLine
10
208.58478414323281
20
36.022413356821247
30
0
11
208.5340752478821
21
35.609422546105193
31
0
0
ARC
5
141
100
AcDbEntity
8
0
100
AcDbCircle
10
160.04485133969737
20
127.06602481838972
30
0
40
1.1999999999999904
210
0
220
-0
230
1
100
AcDbArc
50
46.623062263410674
51
123.09503054888405
0
LINE
5
142
100
AcDbEntity
8
0
100
AcDbLine
10
248.08568469686071
20
36.040568012834498
30
0
11
208.58478414323281
21
36.022413356821247
31
0
0
LINE
5
143
100
AcDbEntity
8
0
100
AcDbLine
10
160.86900533947733
20
127.93824622643166
30
0
11
164.62161943294512
21
124.3924356257665
31
0
0
LINE
5
144
100
AcDbEntity
8
0
100
AcDbLine
10
15.238128015993579
20
128.78658550538515
30
0
11
15.238128015993588
21
68.725619596700881
31
0
0
ARC
5
145
100
AcDbEntity
8
0
100
AcDbCircle
10
256.20187198400635
20
128.78658550538512
30
0
40
4.5000000000000284
210
0
220
-0
230
1
100
AcDbArc
50
0
51
89.999999999999275
0
LWPOLYLINE
5
146
100
AcDbEntity
8
0
100
AcDbPolyline
90
4
70
1
43
0.0
10
122.33475051835669
20
41.652097531781195
10
104.18408727613205
20
35.974430685221328
10
129.96339157681254
20
35.986278880965735
10
129.96078594964789
20
41.655602465796868
0
LINE
5
147
100
AcDbEntity
8
0
100
AcDbLine
10
138.0600739932454
20
33.129999822774245
30
0
11
138.0600739932454
21
41.050568599496238
31
0
0
LINE
5
148
100
AcDbEntity
8
0
100
AcDbLine
10
256.2018719840064
20
133.28658550538518
30
0
11
19.738128015993581
21
133.28658550538515
31
0
0
LINE
5
149
100
AcDbEntity
8
0
100
AcDbLine
10
137.97
20
133.28658550538518
30
0
11
137.99361793212682
21
123.69496103953479
31
0
0
LINE
5
150
100
AcDbEntity
8
0
100
AcDbLine
10
26.786322564795739
20
37.033256116503011
30
0
11
21.444987524691292
21
97.177927305854666
31
0
0
SPLINE
5
151
100
AcDbEntity
8
0
100
AcDbSpline
70
4
71
3
72
19
73
15
74
0
42
0.000000001
43
0.0000000001
44
0.0000000001
40
-0.76310900944782278
40
-0.76310900944782278
40
-0.76310900944782278
40
-0.76310900944782278
40
-0.71875667866113457
40
-0.71875667866113457
40
-0.53168199878212385
40
-0.53168199878212385
40
-0.38155450472391139
40
-0.38155450472391139
40
-0.38155450472391139
40
-0.28843664527375656
40
-0.28843664527375656
40
-0.13944807015350882
40
-0.13944807015350882
40
0
40
0
40
0
40
0
41
1
41
1
41
1
41
1
41
1
41
1
41
1
41
1
41
1
41
1
41
1
41
1
41
1
41
1
41
1
10
255.95056691556755
20
37.702349654304818
30
0
10
255.94402605412444
20
37.569453639676922
30
0
10
255.93160393863963
20
37.437109269291369
30
0
10
255.83655446778519
20
36.751409824231565
30
0
10
255.65478757702761
20
36.211011933417382
30
0
10
255.16203291513312
20
35.331910606689711
30
0
10
254.88427502724448
20
34.974080407312989
30
0
10
254.55830182011655
20
34.663850013333253
30
0
10
254.35611415638266
20
34.47142696381129
30
0
10
254.13685494795831
20
34.298605105974879
30
0
10
253.53021358313936
20
33.905412446520863
30
0
10
253.11872426938251
20
33.718378791081406
30
0
10
252.28981435434039
20
33.481895205213121
30
0
10
251.87432435861567
20
33.423561030486191
30
0
10
251.45597963049255
20
33.423561030486191
30
0
0
LINE
5
152
100
AcDbEntity
8
0
100
AcDbLine
10
144.00486633472133
20
33.423561030486198
30
0
11
251.45424717852066
21
33.423561030486198
31
0
0
SPLINE
5
153
100
AcDbEntity
8
0
100
AcDbSpline
70
4
71
3
72
17
73
13
74
0
42
0.000000001
43
0.0000000001
44
0.0000000001
40
18.938406097986292
40
18.938406097986292
40
18.938406097986292
40
18.938406097986292
40
18.977253505723191
40
18.977253505723191
40
19.016100913460093
40
19.016100913460093
40
19.093795728933895
40
19.093795728933895
40
19.093795728933895
40
19.168154738304736
40
19.168154738304736
40
19.242513747675581
40
19.242513747675581
40
19.242513747675581
40
19.242513747675581
41
1
41
1
41
1
41
1
41
1
41
1
41
1
41
1
41
1
41
1
41
1
41
1
41
1
10
257.47581472219883
20
68.725619596700938
30
0
10
257.43051052500118
20
67.802732615287255
30
0
10
257.38450465123128
20
66.865625202629332
30
0
10
257.2875571176487
20
64.891376833234915
30
0
10
257.23707461814047
20
63.863541481054753
30
0
10
257.07878461360701
20
60.641353974805334
30
0
10
256.96420068543478
20
58.309659969799597
30
0
10
256.83772114696518
20
55.736858882102929
30
0
10
256.71667197362041
20
53.274520320350938
30
0
10
256.5847535200266
20
50.591877003165678
30
0
10
256.29196956958106
20
44.639853336161359
30
0
10
256.13116279509364
20
41.371663377155983
30
0
10
255.95056713733265
20
37.702354160119143
30
0
0
ARC
5
154
100
AcDbEntity
8
0
100
AcDbCircle
10
253.37118086086832
20
97.390123431878692
30
0
40
1.2000000000000073
210
-0
220
0
230
1
100
AcDbArc
50
-5.0223498611224011
51
81.911607742465989
0
LINE
5
155
100
AcDbEntity
8
0
100
AcDbLine
10
165.29724693203033
20
124.07388422651421
30
0
11
224.84281021052266
21
116.64669568855172
31
0
0
ARC
5
156
100
AcDbEntity
8
0
100
AcDbCircle
10
248.08513317563944
20
37.240567886094638
30
0
40
1.200000000000002
210
-0
220
0
230
1
100
AcDbArc
50
270.02633319950257
51
354.97765013887749
0
LINE
5
157
100
AcDbEntity
8
0
100
AcDbLine
10
24.485752821479334
20
33.423561030486198
30
0
11
132.06486381259762
21
33.423561030486198
31
0
0
ARC
5
158
100
AcDbEntity
8
0
100
AcDbCircle
10
207.34301986591251
20
35.755665758191377
30
0
40
1.2000000000000022
210
0
220
0
230
1
100
AcDbArc
50
263
51
352.99999999999972
0
LINE
5
159
100
AcDbEntity
8
0
100
AcDbLine
10
132.06486381259762
20
33.423561030486198
30
0
11
132.06368554108926
21
35.987244178311208
31
0
0
LINE
5
160
100
AcDbEntity
8
0
100
AcDbLine
10
125.58390297742834
20
123.68925752130929
30
0
11
150.40333288682532
21
123.70066455776028
31
0
0
SPLINE
5
161
100
AcDbEntity
8
0
100
AcDbSpline
70
4
71
3
72
17
73
13
74
0
42
0.000000001
43
0.0000000001
44
0.0000000001
40
1.1569330107406303e-05
40
1.1569330107406303e-05
40
1.1569330107406303e-05
40
1.1569330107406303e-05
40
0.074370578702046899
40
0.074370578702046899
40
0.1487295880739864
40
0.1487295880739864
40
0.1487295880739864
40
0.22642440354901977
40
0.22642440354901977
40
0.26527181128653643
40
0.26527181128653643
40
0.30411921902405314
40
0.30411921902405314
40
0.30411921902405314
40
0.30411921902405314
41
1
41
1
41
1
41
1
41
1
41
1
41
1
41
1
41
1
41
1
41
1
41
1
41
1
10
19.989432862667602
20
37.702354160113238
30
0
10
19.808837204901927
20
41.371663377238967
30
0
10
19.648030430411612
20
44.639853336299836
30
0
10
19.355246479962677
20
50.591877003369646
30
0
10
19.223328026368343
20
53.274520320564712
30
0
10
19.102278853023886
20
55.736858882310131
30
0
10
18.975799314554507
20
58.309659970002727
30
0
10
18.861215386383538
20
60.64135397498589
30
0
10
18.702925381852978
20
63.863541481181265
30
0
10
18.652442882345788
20
64.891376833340018
30
0
10
18.555495348765795
20
66.865625202685791
30
0
10
18.509489474997345
20
67.802732615315648
30
0
10
18.464185277801253
20
68.725619596700852
30
0
0
LINE
5
162
100
AcDbEntity
8
0
100
AcDbLine
10
260.7018719840064
20
68.725619596700881
30
0
11
260.7018719840064
21
128.78658550538515
31
0
0
LINE
5
163
100
AcDbEntity
8
0
100
AcDbLine
10
224.84281021052266
20
116.64669568855172
30
0
11
236.07464920399428
21
101.0602667109801
31
0
0
ENDSEC
0
SECTION
2
OBJECTS
0
DICTIONARY
5
C
100
AcDbDictionary
3
ACAD_GROUP
350
D
3
ACAD_MLINESTYLE
350
17
0
DICTIONARY
5
D
100
AcDbDictionary
0
DICTIONARY
5
1A
330
C
100
AcDbDictionary
0
DICTIONARY
5
17
100
AcDbDictionary
0
ENDSEC
0
EOF
