0
SECTION
2
HEADER
9
$INSUNITS
70
4
9
$ACADVER
1
AC1014
9
$HANDSEED
5
FFFF
0
ENDSEC
0
SECTION
2
TABLES
0
TABLE
2
VPORT
5
8
100
AcDbSymbolTable
0
ENDTAB
0
TABLE
2
LTYPE
5
5
100
AcDbSymbolTable
0
LTYPE
5
14
100
AcDbSymbolTableRecord
100
AcDbLinetypeTableRecord
2
BYBLOCK
70
0
0
LTYPE
5
15
100
AcDbSymbolTableRecord
100
AcDbLinetypeTableRecord
2
BYLAYER
70
0
0
ENDTAB
0
TABLE
2
LAYER
5
2
100
AcDbSymbolTable
70
2
0
LAYER
5
50
100
AcDbSymbolTableRecord
100
AcDbLayerTableRecord
2
0
70
0
6
CONTINUOUS
0
ENDTAB
0
TABLE
2
STYLE
5
3
100
AcDbSymbolTable
70
1
0
STYLE
5
11
100
AcDbSymbolTableRecord
100
AcDbTextStyleTableRecord
2
STANDARD
70
0
0
ENDTAB
0
TABLE
2
VIEW
5
6
100
AcDbSymbolTable
70
0
0
ENDTAB
0
TABLE
2
UCS
5
7
100
AcDbSymbolTable
70
0
0
ENDTAB
0
TABLE
2
APPID
5
9
100
AcDbSymbolTable
70
2
0
APPID
5
12
100
AcDbSymbolTableRecord
100
AcDbRegAppTableRecord
2
ACAD
70
0
0
ENDTAB
0
TABLE
2
DIMSTYLE
5
A
100
AcDbSymbolTable
70
1
0
ENDTAB
0
TABLE
2
BLOCK_RECORD
5
1
100
AcDbSymbolTable
70
1
0
BLOCK_RECORD
5
1F
100
AcDbSymbolTableRecord
100
AcDbBlockTableRecord
2
*MODEL_SPACE
0
BLOCK_RECORD
5
1B
100
AcDbSymbolTableRecord
100
AcDbBlockTableRecord
2
*PAPER_SPACE
0
ENDTAB
0
ENDSEC
0
SECTION
2
BLOCKS
0
BLOCK
5
20
100
AcDbEntity
100
AcDbBlockBegin
2
*MODEL_SPACE
0
ENDBLK
5
21
100
AcDbEntity
100
AcDbBlockEnd
0
BLOCK
5
1C
100
AcDbEntity
100
AcDbBlockBegin
2
*PAPER_SPACE
0
ENDBLK
5
1D
100
AcDbEntity
100
AcDbBlockEnd
0
ENDSEC
0
SECTION
2
ENTITIES
0
LWPOLYLINE
5
100
100
AcDbEntity
8
0
100
AcDbPolyline
90
31
70
1
43
0.0
10
-52.098603600667815
20
115.12718821839889
42
-0.41421356237307783
10
-51.05379143078445
20
113.78988962434312
10
-52.258246864783366
20
103.98038731279971
42
0.36335778456738066
10
-51.420519638675906
20
102.68734018797383
10
-40.42182855706784
20
99.298663890665196
10
-25.18624512937361
20
97.42796946939626
10
-23.013386118898929
20
97.237014835759666
42
-0.41421356237308637
10
-21.923046565736577
20
95.936568889628205
10
-22.251230283175083
20
92.202190027241187
10
-28.672040766877807
20
39.908885099594869
42
-0.34465356972016375
10
-29.718241223004078
20
38.863903290763957
10
-47.228391878381686
20
36.73464011197553
42
-0.060870157793287194
10
-47.519490016311181
20
36.734809750923034
10
-66.159367051086548
20
39.02349886792215
42
0.41421356237309381
10
-67.496665645142315
20
37.97868669803875
10
-67.754114633085663
20
35.881932952696552
42
-0.41421356237309681
10
-69.091413227141459
20
34.83712078281313
10
-86.460970880864522
20
36.969834292403178
42
-0.41421356237309509
10
-87.505783050747894
20
38.307132886458902
10
-87.248334062804531
20
40.4038866318012
42
0.4142135623731012
10
-88.293146232687931
20
41.741185225856945
10
-121.41112468972963
20
45.807561668696586
10
-122.98822743366856
20
44.575393963332758
10
-124.9335040547234
20
43.05037469030264
42
-0.99999999999999989
10
-128.01834215152999
20
46.985317373047963
10
-124.48638001950656
20
49.754234793146836
10
-115.89793795374277
20
119.70148225331621
10
-116.98439033923073
20
121.37447221658178
10
-118.33406442475336
20
123.44526066024386
42
-0.99999999999999989
10
-114.14523403132414
20
126.17540716456986
10
-111.71530638414237
20
122.44719889214907
0
CIRCLE
5
101
100
AcDbEntity
8
0
100
AcDbCircle
10
-50.142751615546821
20
98.994805329976501
30
0
40
1.05
210
0
220
-0
230
1
0
CIRCLE
5
102
100
AcDbEntity
8
0
100
AcDbCircle
10
-116.23964922803876
20
124.81033391240686
30
0
40
1.05
210
0
220
-0
230
1
0
CIRCLE
5
103
100
AcDbEntity
8
0
100
AcDbCircle
10
-126.47592310312669
20
45.017846031675298
30
0
40
1.05
210
0
220
-0
230
1
0
CIRCLE
5
104
100
AcDbEntity
8
0
100
AcDbCircle
10
-43.834545256908832
20
39.187257743055113
30
0
40
1.05
210
0
220
-0
230
1
0
LWPOLYLINE
5
105
100
AcDbEntity
8
0
100
AcDbPolyline
90
3
70
1
43
0.0
10
-124.39167945391642
20
46.39839969261233
42
-0.015162949919155342
10
-124.311835951855
20
46.269535610484994
10
-124.52641353852505
20
46.544182396999432
42
0.04142704179805589
0
LWPOLYLINE
5
106
100
AcDbEntity
8
0
100
AcDbPolyline
90
8
70
1
43
0.0
10
-116.36978489529504
20
86.648801968459011
42
-0.41421356237312595
10
-116.80512329941315
20
87.206009715982233
10
-115.22082183514627
20
100.10910968731943
42
-0.41421356237309509
10
-114.66361408762296
20
100.54444809143754
10
-101.7605141162858
20
98.960146627170616
42
-0.41421356237310536
10
-101.32517571216772
20
98.402938879647365
10
-102.90947717643465
20
85.499838908310181
42
-0.41421356237306411
10
-103.4666849239579
20
85.064500504192054
0
LWPOLYLINE
5
107
100
AcDbEntity
8
0
100
AcDbPolyline
90
8
70
1
43
0.0
10
-73.86866500229678
20
100.62338279950654
42
-0.41421356237306861
10
-74.304003406414893
20
101.18059054702979
10
-72.71970194214795
20
114.08369051836701
42
-0.41421356237309509
10
-72.162494194624685
20
114.51902892248509
10
-59.259394223287529
20
112.93472745821816
42
-0.41421356237307372
10
-58.824055819169459
20
112.37751971069494
10
-60.408357283436366
20
99.474419739357756
42
-0.41421356237312595
10
-60.965565030959574
20
99.0390813352397
0
LWPOLYLINE
5
108
100
AcDbEntity
8
0
100
AcDbPolyline
90
8
70
1
43
0.0
10
-81.731665945889887
20
114.68646564870977
42
-0.41421356237307438
10
-81.296327541771802
20
114.12925790118652
10
-83.00249834944384
20
100.23361177820803
42
-0.41421356237307438
10
-83.559706096967091
20
99.798273374089888
10
-89.514983006815044
20
100.5294894345208
42
-0.41421356237311568
10
-89.950321410933157
20
101.08669718204408
10
-88.244150603261033
20
114.98234330502257
42
-0.41421356237307438
10
-87.686942855737868
20
115.41768170914065
0
LWPOLYLINE
5
109
100
AcDbEntity
8
0
100
AcDbPolyline
90
8
70
1
43
0.0
10
-77.985216205578894
20
90.738886656391529
10
-79.569517669845808
20
77.83578668505433
42
0.4142135623730524
10
-79.134179265727767
20
77.278578937531108
10
-66.231079294390511
20
75.694277473264208
42
0.41421356237309509
10
-65.673871546867304
20
76.129615877382278
10
-64.089570082600346
20
89.032715848719462
42
0.41421356237307438
10
-64.524908486718431
20
89.589923596242699
10
-77.428008458055643
20
91.174225060509627
42
0.41421356237308471
0
LWPOLYLINE
5
110
100
AcDbEntity
8
0
100
AcDbPolyline
90
8
70
1
43
0.0
10
-121.01300687903117
20
48.832793590924638
42
-0.41421356237311568
10
-121.44834528314929
20
49.39000133844786
10
-119.86404381888235
20
62.293101309785044
42
-0.41421356237309509
10
-119.30683607135911
20
62.728439713903157
10
-106.40373610002193
20
61.144138249636235
42
-0.41421356237308471
10
-105.96839769590386
20
60.586930502112978
10
-107.55269916017082
20
47.683830530775815
42
-0.41421356237309509
10
-108.10990690769401
20
47.248492126657737
0
LWPOLYLINE
5
111
100
AcDbEntity
8
0
100
AcDbPolyline
90
8
70
1
43
0.0
10
-96.312817646379045
20
97.787498695451376
10
-97.897119110646031
20
84.884398724114192
42
0.41421356237313123
10
-97.461780706527861
20
84.327190976590956
10
-84.558680735190705
20
82.742889512323984
42
0.41421356237303186
10
-84.001472987667512
20
83.178227916442111
10
-82.417171523400569
20
96.081327887779295
42
0.41421356237311568
10
-82.852509927518668
20
96.638535635302546
10
-95.755609898855809
20
98.222837099569489
42
0.41421356237309509
0
LWPOLYLINE
5
112
100
AcDbEntity
8
0
100
AcDbPolyline
90
8
70
1
43
0.0
10
-60.818420260712713
20
74.23627252294807
10
-62.402721724979671
20
61.333172551610872
42
0.4142135623730771
10
-61.967383320861522
20
60.77596480408765
10
-49.064283349524416
20
59.191663339820686
42
0.41421356237312157
10
-48.507075602001102
20
59.62700174393882
10
-46.922774137734258
20
72.530101715276004
42
0.41421356237306345
10
-47.358112541852293
20
73.08730946279924
10
-60.261212513189406
20
74.671610927066155
42
0.41421356237312668
0
LWPOLYLINE
5
113
100
AcDbEntity
8
0
100
AcDbPolyline
90
8
70
1
43
0.0
10
-99.783391698395889
20
65.419186787823747
42
-0.41421356237312595
10
-100.21873010251404
20
65.976394535346998
10
-98.634428638247158
20
78.879494506684182
42
-0.41421356237310536
10
-98.077220890723851
20
79.314832910802323
10
-85.174120919386695
20
77.730531446535366
42
-0.41421356237303697
10
-84.738782515268696
20
77.17332369901213
10
-86.323083979535539
20
64.270223727674946
42
-0.41421356237308471
10
-86.88029172705879
20
63.834885323556847
0
LWPOLYLINE
5
114
100
AcDbEntity
8
0
100
AcDbPolyline
90
8
70
1
43
0.0
10
-102.10500269026403
20
46.511182599056582
42
-0.4142135623731002
10
-102.5403410943821
20
47.068390346579811
10
-100.9560396301152
20
59.971490317917002
42
-0.41421356237310536
10
-100.39883188259194
20
60.406828722035101
10
-87.495731911254779
20
58.822527257768172
42
-0.41421356237308471
10
-87.060393507136723
20
58.265319510244936
10
-88.644694971403652
20
45.362219538907752
42
-0.41421356237308993
10
-89.20190271892686
20
44.926881134789689
0
LWPOLYLINE
5
115
100
AcDbEntity
8
0
100
AcDbPolyline
90
8
70
1
43
0.0
10
-118.69139588716308
20
67.740797779691832
42
-0.41421356237309509
10
-119.12673429128118
20
68.298005527215054
10
-117.54243282701431
20
81.201105498552238
42
-0.41421356237309509
10
-116.98522507949104
20
81.636443902670379
10
-104.08212510815386
20
80.052142438403422
42
-0.41421356237308471
10
-103.64678670403578
20
79.494934690880172
10
-105.23108816830265
20
66.591834719542987
42
-0.41421356237306345
10
-105.7882959158259
20
66.156496315424846
0
LWPOLYLINE
5
116
100
AcDbEntity
8
0
100
AcDbPolyline
90
8
70
1
43
0.0
10
-42.478976384127343
20
63.1813548594114
42
-0.41421356237312668
10
-42.914314788245463
20
63.738562606934636
10
-41.330013323978569
20
76.64166257827182
42
-0.41421356237306345
10
-40.772805576455333
20
77.077000982389961
10
-27.869705605118149
20
75.49269951812299
42
-0.41421356237308471
10
-27.434367201000072
20
74.935491770599739
10
-29.018668665266993
20
62.03239179926257
42
-0.41421356237310536
10
-29.57587641279023
20
61.597053395144513
0
LWPOLYLINE
5
117
100
AcDbEntity
8
0
100
AcDbPolyline
90
8
70
1
43
0.0
10
-64.288994312729599
20
41.867960615320463
42
-0.41421356237312157
10
-64.724332716847726
20
42.425168362843699
10
-63.140031252580826
20
55.328268334180883
42
-0.41421356237308993
10
-62.582823505057512
20
55.763606738299046
10
-49.67972353372037
20
54.17930527403206
42
-0.41421356237307955
10
-49.244385129602307
20
53.622097526508831
10
-50.828686593869215
20
40.71899755517164
42
-0.41421356237311047
10
-51.385894341392451
20
40.28365915105357
0
LWPOLYLINE
5
118
100
AcDbEntity
8
0
100
AcDbPolyline
90
8
70
1
43
0.0
10
-82.628438189314977
20
52.922878278857155
10
-84.212739653581934
20
40.019778307519964
42
0.41421356237308399
10
-83.77740124946385
20
39.46257055999672
10
-70.874301278126623
20
37.878269095729905
42
0.41421356237310825
10
-70.317093530603472
20
38.313607499847897
10
-68.732792066336486
20
51.216707471185089
42
0.41421356237305307
10
-69.168130470454514
20
51.773915218708311
10
-82.071230441791812
20
53.358216682975183
42
0.41421356237308471
0
LWPOLYLINE
5
119
100
AcDbEntity
8
0
100
AcDbPolyline
90
8
70
1
43
0.0
10
-81.455790257595766
20
58.370574748763921
42
-0.41421356237310536
10
-81.89112866171385
20
58.927782496287136
10
-80.306827197446964
20
71.830882467624349
42
-0.41421356237303242
10
-79.749619449923756
20
72.266220871742462
10
-66.846519478586515
20
70.681919407475519
42
-0.41421356237307955
10
-66.411181074468431
20
70.124711659952268
10
-67.995482538735388
20
57.221611688615077
42
-0.41421356237306861
10
-68.55269028625851
20
56.786273284497028
0
LWPOLYLINE
5
120
100
AcDbEntity
8
0
100
AcDbPolyline
90
8
70
1
43
0.0
10
-44.800587375995448
20
44.273350670644206
42
-0.41421356237308993
10
-45.235925780113519
20
44.830558418167442
10
-43.651624315846611
20
57.733658389504626
42
-0.41421356237306861
10
-43.094416568323368
20
58.168996793622767
10
-30.191316596986226
20
56.584695329355803
42
-0.41421356237309509
10
-29.75597819286812
20
56.027487581832574
10
-31.340279657135031
20
43.124387610495361
42
-0.41421356237310797
10
-31.897487404658268
20
42.689049206377305
0
LWPOLYLINE
5
121
100
AcDbEntity
8
0
100
AcDbPolyline
90
8
70
1
43
0.0
10
-104.59417180904346
20
104.39600066129213
42
-0.41421356237308471
10
-105.02951021316156
20
104.9532084088154
10
-103.44520874889466
20
117.85630838015258
42
-0.41421356237307438
10
-102.88800100137135
20
118.29164678427074
10
-89.984901030034166
20
116.70734532000375
42
-0.41421356237308471
10
-89.549562625916096
20
116.15013757248052
10
-91.133864090182925
20
103.24703760114332
42
-0.41421356237307438
10
-91.691071837706232
20
102.81169919702518
0
LWPOLYLINE
5
122
100
AcDbEntity
8
0
100
AcDbPolyline
90
8
70
1
43
0.0
10
-105.42969786247812
20
117.59621809185106
42
-0.41421356237314799
10
-104.99435945835999
20
117.03901034432783
10
-106.70053026603206
20
103.14336422134934
42
-0.41421356237308471
10
-107.25773801355527
20
102.70802581723129
10
-113.21301492340318
20
103.43924187766211
42
-0.41421356237312595
10
-113.64835332752131
20
103.99644962518535
10
-111.94218251984924
20
117.89209574816385
42
-0.41421356237307438
10
-111.38497477232605
20
118.32743415228197
0
LWPOLYLINE
5
123
100
AcDbEntity
8
0
100
AcDbPolyline
90
8
70
1
43
0.0
10
-40.157365392259301
20
82.089359048178579
42
-0.41421356237308471
10
-40.592703796377343
20
82.646566795701801
10
-39.008402332110499
20
95.549666767038971
42
-0.41421356237312595
10
-38.451194584587221
20
95.985005171157098
10
-25.548094613250107
20
94.40070370689017
42
-0.41421356237310536
10
-25.112756209132012
20
93.843495959366948
10
-26.697057673398881
20
80.940395988029735
42
-0.41421356237310536
10
-27.254265420922188
20
80.505057583911608
0
LWPOLYLINE
5
124
100
AcDbEntity
8
0
100
AcDbPolyline
90
8
70
1
43
0.0
10
-59.645772328993445
20
79.68396899285483
42
-0.41421356237312668
10
-60.081110733111586
20
80.24117674037808
10
-58.496809268844707
20
93.144276711715264
42
-0.41421356237307955
10
-57.939601521321393
20
93.57961511583342
10
-45.036501549984287
20
91.99531365156642
42
-0.41421356237313695
10
-44.601163145866181
20
91.438105904043169
10
-46.185464610133096
20
78.535005932706014
42
-0.41421356237307438
10
-46.742672357656296
20
78.099667528587901
0
ENDSEC
0
SECTION
2
OBJECTS
0
DICTIONARY
5
C
100
AcDbDictionary
3
ACAD_GROUP
350
D
3
ACAD_MLINESTYLE
350
17
0
DICTIONARY
5
D
100
AcDbDictionary
0
DICTIONARY
5
1A
330
C
100
AcDbDictionary
0
DICTIONARY
5
17
100
AcDbDictionary
0
ENDSEC
0
EOF
